<?xml version="1.0" encoding="utf-8"?>
<!-- Generator: Adobe Illustrator 27.5.0, SVG Export Plug-In . SVG Version: 6.00 Build 0)  -->
<svg version="1.1" xmlns="http://www.w3.org/2000/svg" xmlns:xlink="http://www.w3.org/1999/xlink" x="0px" y="0px"
	 viewBox="0 0 750 500" style="enable-background:new 0 0 750 500;" xml:space="preserve">
<g id="Background_Complete">
	<g>
		<g>
			<path style="fill:#E0E0E0;" d="M231.733,87.063c2.559-1.073,4.378-3.712,4.393-6.821c0.016-4.073-3.066-7.389-6.885-7.407
				c-3.818-0.018-6.928,3.27-6.945,7.343c-0.013,3.138,1.82,5.808,4.406,6.885c-10.642,1.603-10.159,13.169-10.159,13.169
				l25.164,0.116C241.708,100.348,242.282,88.657,231.733,87.063z"/>
		</g>
		<g>
			<polygon style="fill:#F5F5F5;" points="640.285,147.907 628.606,135.343 632.388,131.828 640.45,140.501 657.381,123.843 
				661.002,127.524 			"/>
		</g>
		<path style="fill:#EBEBEB;" d="M471.021,216.557c0-8.585-9.02-14.024-18.217-9.72c-2.077,0.972-3.796,2.617-4.839,4.638
			c-2.314,4.482-1.292,9.6,0.806,13.85l7.157,18.14c1.032,2.614,4.737,2.599,5.747-0.024l7.018-18.234
			C471.123,219.653,471.021,216.557,471.021,216.557z M462.38,224.028c-6.182,3.595-12.448-3.05-9.059-9.607
			c0.451-0.872,1.141-1.604,1.963-2.083c6.183-3.595,12.449,3.05,9.059,9.607C463.893,222.818,463.203,223.55,462.38,224.028z"/>
		<g>
			<g>
				<path style="fill:#EBEBEB;" d="M577.371,341.179c-19.273-17.6-20.374-45.5-16.185-69.868c0.7-4.069,0.835-8.44,3.295-11.754
					c2.461-3.315,7.391-5.134,10.863-2.903c2.879,1.85,3.737,5.566,5.058,8.722c1.757,4.199,4.727,7.883,8.458,10.49
					c2.452,1.713,5.601,2.987,8.398,1.927c3.838-1.454,4.925-6.266,5.456-10.336c0.988-7.581,1.977-15.163,2.965-22.745
					c0.53-4.068,1.085-8.22,2.894-11.902c1.808-3.682,5.128-6.876,9.194-7.422c4.066-0.544,8.606,2.352,8.889,6.443
					c0.118,1.703-0.46,3.375-0.576,5.077c-0.116,1.702,0.426,3.68,1.985,4.374c1.578,0.702,3.383-0.225,4.778-1.244
					c4.812-3.521,8.419-8.411,11.834-13.299c3.415-4.887,6.768-9.909,11.236-13.856c4.469-3.947,10.29-6.761,16.232-6.28
					c5.943,0.481,11.735,4.938,12.444,10.858c0.711,5.935-3.472,11.284-7.793,15.416c-6.409,6.132-13.71,11.329-21.601,15.378
					c-1.423,0.731-2.964,1.521-3.667,2.958c-1.264,2.586,0.969,5.637,3.557,6.9c2.933,1.43,6.306,1.573,9.466,2.388
					c3.161,0.815,6.448,2.69,7.254,5.852c1.117,4.388-2.999,8.258-6.853,10.634c-7.717,4.758-16.256,8.182-25.122,10.076
					c-3.18,0.679-6.498,1.2-9.228,2.965c-2.73,1.766-4.704,5.216-3.621,8.281c1.085,3.07,4.748,4.506,8.001,4.361
					c3.252-0.144,6.326-1.454,9.504-2.165c5.948-1.331,13.203,0.059,16.168,5.384c1.948,3.501,1.554,7.949-0.169,11.566
					c-1.722,3.617-4.61,6.539-7.616,9.187c-10.507,9.258-23.276,16.118-37.019,18.808
					C602.104,348.136,589.774,347.681,577.371,341.179"/>
			</g>
			<g>
				<g>
					<path style="fill:#E0E0E0;" d="M578.903,351.096c2.231-9.571,1.666-12.523,7.031-24.36
						c5.343-11.85,12.292-24.355,20.013-37.192c1.943-3.201,3.862-6.364,5.755-9.482c1.895-3.109,3.773-6.189,5.8-9.09
						c4.028-5.82,8.35-11.112,12.613-16.009c4.263-4.9,8.49-9.395,12.474-13.573c3.993-4.169,7.789-7.986,11.399-11.318
						c7.202-6.693,13.646-11.402,18.203-14.459c2.278-1.536,4.082-2.671,5.316-3.427c0.6-0.362,1.066-0.644,1.407-0.85
						c0.319-0.188,0.49-0.271,0.49-0.271s-0.148,0.119-0.456,0.325c-0.332,0.217-0.789,0.517-1.375,0.901
						c-1.21,0.789-2.993,1.956-5.245,3.52c-4.51,3.115-10.895,7.864-18.04,14.581c-3.584,3.345-7.354,7.173-11.326,11.352
						c-3.964,4.19-8.171,8.694-12.413,13.594c-4.243,4.896-8.543,10.179-12.546,15.978c-2.014,2.89-3.876,5.95-5.773,9.067
						c-1.891,3.117-3.808,6.279-5.75,9.479c-7.716,12.828-14.666,25.301-20.024,37.109c-5.38,11.794-4.846,14.695-7.125,24.224"/>
				</g>
			</g>
			<g>
				<g>
					<path style="fill:#E0E0E0;" d="M617.663,270.934c-0.043,0.001-0.09-0.636-0.137-1.79c-0.053-1.153-0.081-2.823-0.087-4.886
						c-0.016-4.127,0.149-9.826,0.347-16.11c0.198-6.287,0.264-11.976,0.159-16.092c-0.046-2.059-0.104-3.725-0.161-4.875
						c-0.05-1.15-0.059-1.79-0.015-1.794c0.042-0.004,0.131,0.629,0.256,1.777c0.132,1.147,0.256,2.815,0.359,4.877
						c0.22,4.124,0.222,9.834,0.024,16.126c-0.205,6.229-0.391,11.866-0.53,16.096c-0.045,1.973-0.081,3.613-0.109,4.88
						C617.741,270.294,617.706,270.932,617.663,270.934z"/>
				</g>
			</g>
			<g>
				<g>
					<path style="fill:#E0E0E0;" d="M671.945,268.443c-0.002,0.022-0.194,0.025-0.557,0.014c-0.436-0.022-0.958-0.049-1.586-0.081
						c-1.375-0.077-3.364-0.192-5.826-0.254c-4.919-0.164-11.726-0.143-19.23,0.211c-7.507,0.369-14.283,0.996-19.17,1.597
						c-2.446,0.284-4.418,0.568-5.783,0.759c-0.623,0.084-1.142,0.154-1.573,0.213c-0.361,0.042-0.552,0.054-0.557,0.032
						c-0.003-0.021,0.18-0.073,0.535-0.156c0.426-0.089,0.939-0.198,1.555-0.326c1.353-0.264,3.321-0.616,5.765-0.957
						c4.883-0.713,11.674-1.411,19.199-1.781c7.522-0.356,14.348-0.307,19.278-0.031c2.465,0.118,4.455,0.3,5.827,0.452
						c0.625,0.078,1.145,0.142,1.578,0.196C671.759,268.384,671.948,268.422,671.945,268.443z"/>
				</g>
			</g>
			<g>
				<g>
					<path style="fill:#E0E0E0;" d="M586.656,325.837c-0.021,0.006-0.11-0.232-0.261-0.691c-0.165-0.525-0.375-1.194-0.635-2.019
						c-0.546-1.754-1.273-4.312-2.131-7.483c-1.723-6.34-3.833-15.169-6.038-24.942c-2.206-9.775-4.247-18.61-5.859-24.972
						c-0.804-3.12-1.462-5.673-1.939-7.528c-0.214-0.837-0.387-1.516-0.522-2.048c-0.113-0.471-0.163-0.721-0.142-0.727
						c0.021-0.006,0.11,0.232,0.262,0.692c0.164,0.524,0.375,1.192,0.634,2.018c0.546,1.754,1.271,4.312,2.13,7.482
						c1.724,6.34,3.835,15.169,6.04,24.946c2.206,9.772,4.246,18.606,5.859,24.968c0.805,3.119,1.462,5.673,1.939,7.528
						c0.214,0.838,0.387,1.516,0.522,2.049C586.627,325.581,586.676,325.831,586.656,325.837z"/>
				</g>
			</g>
			<g>
				<g>
					<path style="fill:#E0E0E0;" d="M660.075,313.125c0.003,0.02-0.252,0.08-0.739,0.174c-0.554,0.099-1.263,0.225-2.138,0.381
						c-1.935,0.333-4.604,0.792-7.869,1.352c-6.641,1.149-15.796,2.85-25.905,4.753c-10.113,1.903-19.287,3.537-25.952,4.577
						c-3.333,0.522-6.032,0.918-7.903,1.158c-0.884,0.109-1.599,0.198-2.156,0.267c-0.494,0.054-0.755,0.072-0.758,0.05
						c-0.003-0.021,0.252-0.08,0.74-0.174c0.552-0.099,1.26-0.225,2.137-0.381c1.934-0.333,4.603-0.791,7.867-1.351
						c6.642-1.149,15.797-2.852,25.91-4.754c10.109-1.902,19.283-3.537,25.947-4.576c3.333-0.521,6.033-0.918,7.904-1.157
						c0.883-0.11,1.598-0.198,2.156-0.267C659.811,313.121,660.071,313.104,660.075,313.125z"/>
				</g>
			</g>
		</g>
		<g>
			<path style="fill:#EBEBEB;" d="M58.275,218.455c0,0,5.957-6.779,19.538,8.187c13.581,14.965,19.661,24.072,19.661,24.072
				s3.331,3.004,5.184-0.056c1.853-3.06,3.442-10.741,8.023-10.682c4.751,0.061,7.541,4.586,8.667,12.043
				c1.126,7.457,4.193,23.706,4.475,25.174c0.278,1.441,1.653,3.302,3.249,1.42c1.597-1.882,9.468-17.531,16.671-13.351
				c7.202,4.18,6.925,25.471,6.94,27.799c0.014,2.328,0.691,3.14,1.869,3.397c1.178,0.257,3.328-5.253,5.749-9.612
				c2.421-4.359,5.993-8.989,9.946-6.23s8.939,17.322,1.383,45.234l-4.348,12.704l-13.19,2.814
				c-28.595,4.301-42.488-2.324-44.776-6.568c-2.288-4.244,2.722-7.26,7.331-9.165c4.608-1.905,10.328-3.408,10.208-4.607
				c-0.12-1.199-0.849-1.965-3.16-2.247c-2.311-0.282-23.493-2.451-26.818-10.086c-3.325-7.634,13.125-13.657,15.177-15.027
				c2.053-1.37,0.362-2.949-1.038-3.39c-1.426-0.449-17.215-5.362-24.493-7.336c-7.279-1.975-11.453-5.266-10.968-9.992
				c0.467-4.557,8.28-5.253,11.533-6.743c3.252-1.49,0.651-5.143,0.651-5.143s-8.349-7.086-21.655-22.295
				c-13.307-15.209-5.676-20.441-5.676-20.441"/>
			<g>
				<path style="fill:#E0E0E0;" d="M70.461,231.837c0.007-0.006,0.096,0.082,0.263,0.26c0.183,0.199,0.425,0.463,0.732,0.797
					c0.655,0.731,1.586,1.771,2.775,3.098c2.42,2.723,5.886,6.624,10.162,11.434c8.635,9.641,20.531,22.922,33.67,37.592
					c13.182,14.659,25.054,27.986,33.565,37.703c4.223,4.857,7.647,8.795,10.037,11.544c1.158,1.355,2.064,2.416,2.701,3.162
					c0.291,0.349,0.52,0.624,0.693,0.831c0.154,0.189,0.229,0.289,0.223,0.295c-0.007,0.006-0.096-0.082-0.263-0.26
					c-0.182-0.199-0.424-0.462-0.732-0.797c-0.655-0.731-1.586-1.77-2.775-3.098c-2.42-2.723-5.886-6.623-10.161-11.434
					c-8.581-9.654-20.494-22.939-33.676-37.599c-13.177-14.654-25.048-27.979-33.559-37.697c-4.223-4.857-7.648-8.795-10.038-11.544
					c-1.158-1.355-2.064-2.416-2.702-3.163c-0.291-0.349-0.52-0.624-0.693-0.831C70.529,231.943,70.454,231.843,70.461,231.837z"/>
			</g>
			<g>
				<path style="fill:#E0E0E0;" d="M108.892,250.811c0.076,0.001,0.117,1.38,0.178,3.607c0.074,2.367,0.168,5.375,0.272,8.701
					c0.113,3.4,0.193,6.481,0.183,8.714c-0.007,1.117-0.032,2.02-0.069,2.644c-0.04,0.624-0.079,0.968-0.115,0.967
					c-0.075-0.002-0.098-1.38-0.184-3.605c-0.091-2.367-0.207-5.375-0.335-8.703c-0.112-3.401-0.153-6.484-0.12-8.715
					c0.019-1.116,0.044-2.019,0.082-2.642C108.819,251.155,108.856,250.811,108.892,250.811z"/>
			</g>
			<g>
				<path style="fill:#E0E0E0;" d="M108.214,275.998c-0.002,0.144-6.364,0.169-14.208,0.057c-7.847-0.112-14.204-0.32-14.202-0.464
					c0.002-0.144,6.363-0.169,14.209-0.057C101.858,275.647,108.216,275.854,108.214,275.998z"/>
			</g>
			<g>
				<path style="fill:#E0E0E0;" d="M132.683,300.763c0.011,0.034-0.315,0.171-0.914,0.391c-0.598,0.222-1.473,0.514-2.559,0.86
					c-2.174,0.684-5.203,1.555-8.593,2.338c-3.39,0.79-6.493,1.347-8.746,1.685c-1.127,0.172-2.042,0.288-2.676,0.355
					c-0.634,0.066-0.987,0.086-0.992,0.051c-0.011-0.074,1.373-0.338,3.606-0.769c2.233-0.43,5.313-1.042,8.691-1.83
					c3.378-0.78,6.412-1.592,8.608-2.184C131.301,301.063,132.66,300.69,132.683,300.763z"/>
			</g>
			<g>
				<path style="fill:#E0E0E0;" d="M138.309,278.116c0.07,0.018-0.197,1.293-0.685,3.34c-0.488,2.046-1.196,4.864-2.009,7.968
					c-0.814,3.105-1.579,5.908-2.158,7.931c-0.579,2.022-0.972,3.264-1.041,3.246c-0.07-0.018,0.197-1.293,0.685-3.339
					c0.488-2.046,1.196-4.865,2.01-7.97c0.813-3.104,1.578-5.907,2.157-7.93C137.847,279.34,138.24,278.098,138.309,278.116z"/>
			</g>
			<g>
				<path style="fill:#E0E0E0;" d="M162.688,297.235c0.035,0.01-0.042,0.421-0.21,1.156c-0.205,0.839-0.459,1.876-0.759,3.102
					c-0.663,2.613-1.613,6.214-2.694,10.182c-1.081,3.97-2.088,7.555-2.841,10.144c-0.363,1.208-0.67,2.231-0.919,3.058
					c-0.228,0.719-0.371,1.112-0.405,1.103c-0.035-0.009,0.042-0.421,0.21-1.156c0.205-0.839,0.459-1.876,0.759-3.102
					c0.663-2.613,1.613-6.214,2.694-10.184c1.081-3.968,2.087-7.554,2.841-10.142c0.363-1.208,0.67-2.231,0.919-3.059
					C162.511,297.618,162.653,297.225,162.688,297.235z"/>
			</g>
			<g>
				<path style="fill:#E0E0E0;" d="M154.854,325.24c0.009,0.035-0.413,0.182-1.186,0.419c-0.772,0.24-1.898,0.558-3.293,0.935
					c-2.792,0.747-6.671,1.701-10.994,2.577c-4.323,0.883-8.266,1.526-11.128,1.926c-1.431,0.202-2.592,0.344-3.396,0.427
					c-0.804,0.083-1.251,0.113-1.256,0.077c-0.005-0.036,0.432-0.133,1.227-0.278c0.9-0.158,2.027-0.356,3.367-0.591
					c2.844-0.492,6.768-1.192,11.081-2.072c4.314-0.874,8.197-1.769,11.008-2.423c1.325-0.308,2.44-0.567,3.33-0.773
					C154.404,325.286,154.844,325.205,154.854,325.24z"/>
			</g>
		</g>
	</g>
</g>
<g id="Background_Simple" style="display:none;">
	<path style="display:inline;fill:#EBEBEB;" d="M530.331,389.641c40.764,0.289,79.201-19.208,102.854-52.41
		c0.154-0.216,0.307-0.431,0.46-0.647c24.754-34.887,29.332-80.892,22.072-123.048c-5.104-29.637-16.443-59.534-39.005-79.419
		c-20.168-17.775-47.368-25.774-74.16-27.99c-42.193-3.49-85.521,6.51-121.493,28.837c-26.494,16.444-49.322,39.466-78.599,50.197
		c-61.758,22.636-135.642-14.945-194.526,14.366c-39.352,19.589-60.737,69.412-47.828,111.432
		c10.22,33.266,35.525,57.861,71.736,69.718c13.749,4.502,28.167,6.622,42.635,6.724L530.331,389.641z"/>
</g>
<g id="Icons">
	<g>
		<g>
			<path style="fill:#455A64;" d="M105.89,241.631c-0.018-0.049,0.58,0.061,1.414-0.501c0.395-0.289,0.822-0.775,1.006-1.474
				c0.099-0.346,0.092-0.733,0.093-1.162c0.002-0.426,0.005-0.878,0.008-1.356c0.035-3.86,0.086-9.396,0.149-16.225
				c0.019-1.713,0.039-3.507,0.06-5.376c0.011-0.935,0.022-1.888,0.033-2.86c-0.007-0.486,0.048-0.989-0.041-1.423
				c-0.09-0.447-0.309-0.869-0.63-1.201c-0.323-0.329-0.745-0.564-1.204-0.649c-0.44-0.073-0.994-0.026-1.504-0.038
				c-1.041,0.002-2.098,0.004-3.17,0.007c-2.146,0.004-4.354,0.008-6.618,0.011c-9.06,0.007-19.016,0.015-29.466,0.023
				c-1.197-0.022-2.247,1.022-2.327,2.197c-0.022,1.284-0.043,2.559-0.065,3.825c-0.038,2.545-0.075,5.053-0.111,7.518
				c-0.076,4.928-0.148,9.682-0.218,14.211c-0.009,0.566-0.018,1.129-0.027,1.688c-0.03,0.536,0.094,1.032,0.357,1.465
				c0.265,0.425,0.662,0.767,1.124,0.939c0.451,0.197,0.967,0.143,1.517,0.153c2.145,0.004,4.228,0.009,6.243,0.013
				c4.026,0.011,7.777,0.022,11.205,0.031c6.829,0.034,12.365,0.062,16.224,0.082c1.893,0.021,3.373,0.037,4.411,0.049
				c0.484,0.011,0.863,0.019,1.147,0.026C105.757,241.613,105.89,241.622,105.89,241.631s-0.132,0.018-0.391,0.027
				c-0.284,0.006-0.663,0.015-1.147,0.026c-1.038,0.012-2.518,0.028-4.411,0.049c-3.86,0.02-9.396,0.049-16.224,0.084
				c-3.428,0.01-7.179,0.021-11.205,0.033c-2.014,0.004-4.097,0.009-6.242,0.014c-0.513-0.01-1.114,0.058-1.683-0.178
				c-0.56-0.208-1.039-0.617-1.357-1.125c-0.318-0.506-0.465-1.139-0.433-1.719c0.007-0.559,0.014-1.122,0.021-1.688
				c0.06-4.53,0.123-9.284,0.188-14.212c0.034-2.464,0.068-4.972,0.103-7.518c0.021-1.279,0.043-2.567,0.065-3.864
				c0.095-1.419,1.364-2.695,2.844-2.671c10.451,0.007,20.406,0.013,29.466,0.018c2.264,0.004,4.472,0.007,6.618,0.01
				c1.073,0.002,2.13,0.004,3.17,0.006c0.528,0.017,1.014-0.038,1.587,0.053c0.549,0.104,1.052,0.388,1.432,0.779
				c0.379,0.394,0.633,0.893,0.736,1.418c0.101,0.542,0.034,1.029,0.042,1.512c-0.017,0.971-0.033,1.925-0.049,2.86
				c-0.033,1.869-0.064,3.662-0.093,5.375c-0.132,6.828-0.24,12.363-0.314,16.223c-0.011,0.478-0.021,0.93-0.031,1.355
				c-0.008,0.418-0.009,0.835-0.123,1.2c-0.211,0.735-0.675,1.232-1.095,1.519c-0.432,0.283-0.824,0.376-1.081,0.407
				C106.023,241.656,105.89,241.631,105.89,241.631z"/>
		</g>
		<polygon style="fill:#455A64;" points="87.659,222.629 93.121,225.944 87.542,229.217 81.963,232.491 82.08,225.903 
			82.198,219.314 		"/>
	</g>
	<g>
		<path style="fill:#E8505B;" d="M593.504,127.043c3.501-1.469,5.991-5.079,6.012-9.334c0.023-5.574-4.195-10.111-9.422-10.136
			c-5.224-0.024-9.48,4.474-9.503,10.048c-0.018,4.294,2.49,7.948,6.03,9.422c-14.562,2.194-13.901,18.02-13.901,18.02l34.435,0.159
			C607.154,145.221,607.939,129.223,593.504,127.043z"/>
	</g>
	<g>
		<g>
			
				<rect x="335.262" y="93.964" transform="matrix(0.9955 -0.0944 0.0944 0.9955 -9.0356 34.8159)" style="fill:#FFFFFF;" width="56.091" height="37.807"/>
			<g>
				<path style="fill:#455A64;" d="M393.013,129.038c0,0-0.038-0.243-0.089-0.696c-0.05-0.474-0.121-1.139-0.213-1.996
					c-0.18-1.765-0.44-4.32-0.773-7.581c-0.647-6.548-1.575-15.925-2.704-27.345l0.227,0.188
					c-15.414,1.477-34.813,3.335-55.831,5.349c-0.056,0.061,0.439-0.536,0.231-0.278l0.001,0.01l0.002,0.02l0.004,0.039l0.007,0.079
					l0.015,0.157l0.03,0.314l0.06,0.628l0.119,1.252c0.079,0.833,0.158,1.664,0.236,2.492c0.157,1.655,0.312,3.299,0.467,4.93
					c0.308,3.262,0.611,6.473,0.909,9.623c0.592,6.3,1.161,12.356,1.7,18.091l-0.26-0.215c16.416-1.509,30.345-2.79,40.197-3.695
					c4.919-0.439,8.818-0.787,11.513-1.028c1.325-0.113,2.353-0.201,3.073-0.263c0.337-0.026,0.599-0.046,0.798-0.062
					C392.913,129.038,393.008,129.034,393.013,129.038c0.005,0.004-0.079,0.017-0.25,0.038c-0.193,0.022-0.445,0.05-0.769,0.087
					c-0.708,0.074-1.719,0.18-3.02,0.316c-2.68,0.269-6.557,0.659-11.447,1.15c-9.884,0.966-23.86,2.333-40.33,3.944l-0.237,0.023
					l-0.023-0.238c-0.549-5.734-1.129-11.789-1.732-18.088c-0.3-3.15-0.606-6.361-0.917-9.622c-0.155-1.631-0.311-3.275-0.469-4.93
					c-0.079-0.828-0.158-1.658-0.237-2.492l-0.119-1.252l-0.06-0.628l-0.03-0.314l-0.015-0.157l-0.007-0.079l-0.004-0.039
					l-0.002-0.02l-0.001-0.01c-0.211,0.25,0.285-0.352,0.239-0.29c21.022-1.975,40.423-3.797,55.84-5.245l0.208-0.02l0.019,0.207
					c1.043,11.482,1.9,20.911,2.498,27.494c0.285,3.245,0.508,5.788,0.662,7.544c0.07,0.843,0.124,1.496,0.163,1.962
					C393.008,128.822,393.013,129.038,393.013,129.038z"/>
			</g>
		</g>
		<g>
			<path style="fill:#455A64;" d="M389.443,91.4c0.013,0.012-0.136,0.203-0.432,0.557c-0.333,0.388-0.77,0.897-1.316,1.533
				c-1.198,1.361-2.869,3.258-4.924,5.592c-4.236,4.737-10.046,11.234-16.52,18.474l-0.147,0.164l-0.186-0.119
				c-0.471-0.3-0.978-0.623-1.487-0.947c-8.516-5.463-16.222-10.406-21.858-14.021c-2.747-1.792-4.987-3.253-6.592-4.299
				c-0.738-0.495-1.329-0.891-1.778-1.191c-0.403-0.277-0.611-0.43-0.601-0.445c0.01-0.015,0.236,0.108,0.657,0.357
				c0.462,0.28,1.07,0.648,1.831,1.109c1.626,1.012,3.896,2.426,6.68,4.16c5.657,3.582,13.392,8.48,21.94,13.892
				c0.509,0.325,1.016,0.647,1.487,0.948l-0.333,0.045c6.521-7.198,12.372-13.657,16.639-18.366
				c2.105-2.288,3.818-4.149,5.045-5.483c0.575-0.609,1.036-1.097,1.386-1.469C389.255,91.557,389.43,91.388,389.443,91.4z"/>
		</g>
	</g>
	<g>
		<g>
			<path style="fill:#263238;" d="M265.297,136.315c-0.083,0.007,0.014-1.33-0.565-3.615c-0.271-1.144-0.816-2.494-1.668-3.923
				c-0.859-1.423-2.093-2.907-3.767-4.165c-1.669-1.246-3.772-2.304-6.196-2.728c-2.408-0.409-5.124-0.33-7.708,0.655
				c-1.301,0.453-2.555,1.137-3.707,2c-1.166,0.846-2.224,1.897-3.096,3.115c-1.803,2.399-2.818,5.482-2.848,8.659
				c0.028,3.178,1.044,6.262,2.846,8.661c0.872,1.218,1.931,2.269,3.096,3.116c1.152,0.863,2.407,1.548,3.708,2.001
				c2.585,0.986,5.301,1.064,7.709,0.655c2.424-0.424,4.527-1.482,6.196-2.728c1.675-1.258,2.908-2.742,3.767-4.165
				c0.852-1.429,1.397-2.779,1.667-3.923C265.311,137.645,265.214,136.308,265.297,136.315c0.009,0,0.014,0.082,0.014,0.242
				c-0.003,0.191-0.006,0.425-0.01,0.711c0,0.314-0.016,0.701-0.092,1.154c-0.06,0.454-0.118,0.982-0.28,1.557
				c-0.244,1.167-0.769,2.551-1.614,4.022c-0.852,1.465-2.092,3.001-3.794,4.309c-1.696,1.296-3.848,2.404-6.34,2.86
				c-2.475,0.441-5.276,0.376-7.952-0.629c-1.346-0.462-2.646-1.164-3.84-2.052c-1.208-0.872-2.305-1.955-3.211-3.213
				c-1.87-2.478-2.928-5.674-2.956-8.964c0.029-3.288,1.087-6.483,2.957-8.961c0.906-1.257,2.003-2.341,3.211-3.212
				c1.194-0.888,2.494-1.589,3.84-2.052c2.675-1.004,5.476-1.069,7.951-0.629c2.492,0.456,4.644,1.563,6.34,2.859
				c1.702,1.308,2.942,2.844,3.794,4.309c0.845,1.471,1.37,2.855,1.614,4.023c0.163,0.575,0.22,1.103,0.28,1.557
				c0.076,0.453,0.092,0.84,0.092,1.154c0.004,0.286,0.007,0.52,0.01,0.712C265.31,136.234,265.306,136.315,265.297,136.315z"/>
		</g>
		<g>
			<path style="fill:#263238;" d="M285.326,161.201c-0.08,0.119-5.355-3.28-11.78-7.593c-6.427-4.314-11.571-7.906-11.491-8.026
				c0.08-0.119,5.354,3.28,11.781,7.594C280.261,157.489,285.406,161.082,285.326,161.201z"/>
		</g>
	</g>
	<g>
		<polygon style="fill:#E8505B;" points="329.532,188.697 317.853,176.133 321.635,172.618 329.697,181.291 346.628,164.634 
			350.249,168.314 		"/>
	</g>
</g>
<g id="Speech_Bubbles">
	<g>
		<g>
			<path style="fill:#263238;" d="M657.207,176.665c0,0,0.191-0.007,0.566,0.004c0.193,0.007,0.425,0.014,0.699,0.023
				c0.277,0.026,0.596,0.079,0.96,0.128c1.431,0.237,3.613,0.82,5.847,2.564c2.195,1.703,4.431,4.698,4.914,8.748
				c0.1,1.007,0.103,2.047,0.098,3.111c0.003,1.068,0.006,2.17,0.009,3.305c0.006,2.271,0.012,4.676,0.018,7.204
				c0.005,2.53,0.011,5.184,0.016,7.954c0.003,1.385,0.005,2.8,0.008,4.243c0.037,1.43-0.039,2.96-0.44,4.424
				c-0.757,2.942-2.63,5.725-5.337,7.557c-1.35,0.913-2.894,1.587-4.536,1.944c-1.65,0.385-3.367,0.303-5.05,0.316
				c-13.588,0.009-28.643,0.019-44.638,0.029l0.182-0.075c-3.211,3.212-6.618,6.62-10.073,10.077l-0.444,0.444v-0.628
				c0-1.44,0-2.994,0-4.554c0-1.891,0-3.773,0-5.521l0.26,0.26c-1.089,0.003-2.201,0.023-3.311-0.122
				c-1.105-0.133-2.183-0.43-3.211-0.834c-2.06-0.812-3.855-2.184-5.262-3.84c-1.37-1.691-2.329-3.694-2.759-5.794
				c-0.192-1.05-0.271-2.131-0.259-3.172c0-1.041,0.001-2.078,0.001-3.11c0.002-4.128,0.005-8.179,0.007-12.144
				c0.001-1.982,0.003-3.943,0.004-5.881c0.039-1.936-0.104-3.848,0.179-5.771c0.296-1.902,1.012-3.709,2.051-5.269
				c1.043-1.559,2.415-2.857,3.955-3.823c1.542-0.967,3.261-1.593,5.004-1.853c1.76-0.254,3.468-0.133,5.142-0.16
				c6.708,0.011,12.95,0.022,18.644,0.032c11.373,0.035,20.558,0.062,26.917,0.081c3.159,0.021,5.613,0.037,7.298,0.048
				c0.821,0.011,1.451,0.019,1.896,0.025C656.989,176.648,657.207,176.665,657.207,176.665s-0.219,0.017-0.646,0.026
				c-0.444,0.006-1.075,0.014-1.896,0.025c-1.685,0.011-4.139,0.027-7.298,0.048c-6.36,0.019-15.545,0.047-26.917,0.081
				c-5.694,0.01-11.936,0.02-18.644,0.032c-1.675,0.029-3.399-0.082-5.076,0.168c-1.684,0.256-3.343,0.865-4.83,1.802
				c-1.485,0.936-2.807,2.192-3.81,3.698c-0.999,1.507-1.686,3.251-1.968,5.085c-0.269,1.824-0.13,3.765-0.164,5.698
				c0.002,1.938,0.003,3.899,0.004,5.881c0.002,3.965,0.005,8.016,0.007,12.144c0.046,2.062-0.138,4.167,0.253,6.181
				c0.415,2.017,1.338,3.94,2.655,5.566c1.354,1.589,3.08,2.909,5.058,3.687c0.987,0.387,2.022,0.672,3.084,0.799
				c1.054,0.139,2.14,0.121,3.245,0.117l0.26-0.001v0.261c0,1.748,0,3.63,0,5.521c0,1.56,0,3.113,0,4.554l-0.444-0.184
				c3.457-3.455,6.865-6.863,10.077-10.073l0.076-0.076l0.107,0c15.995,0.011,31.05,0.021,44.638,0.03
				c1.705-0.009,3.371,0.073,4.955-0.295c1.587-0.341,3.081-0.988,4.389-1.867c2.623-1.764,4.445-4.454,5.187-7.301
				c0.392-1.431,0.473-2.87,0.441-4.321c0.003-1.443,0.005-2.857,0.008-4.243c0.006-2.771,0.011-5.425,0.016-7.954
				c0.006-2.529,0.012-4.933,0.018-7.204c0.003-1.135,0.006-2.238,0.009-3.305c0.012-1.071,0.014-2.101-0.077-3.081
				c-0.447-3.969-2.616-6.931-4.762-8.632c-2.184-1.742-4.333-2.349-5.748-2.615c-0.36-0.056-0.676-0.117-0.95-0.151
				c-0.272-0.018-0.502-0.034-0.694-0.047C657.398,176.691,657.207,176.665,657.207,176.665z"/>
		</g>
		<g>
			<g>
				<path style="fill:#263238;" d="M617.547,204.032c-0.045,0.001-0.055-0.255-0.188-0.677c-0.131-0.414-0.431-1.01-1.058-1.461
					c-0.607-0.452-1.586-0.693-2.524-0.336c-0.93,0.33-1.726,1.32-1.716,2.473c-0.01,1.153,0.786,2.144,1.716,2.473
					c0.938,0.358,1.917,0.116,2.524-0.336c0.627-0.45,0.927-1.047,1.058-1.46C617.491,204.287,617.502,204.031,617.547,204.032
					c0.026-0.002,0.088,0.257,0.008,0.726c-0.079,0.458-0.349,1.151-1.031,1.704c-0.658,0.553-1.79,0.89-2.911,0.494
					c-1.111-0.36-2.087-1.539-2.073-2.925c-0.013-1.385,0.963-2.564,2.073-2.924c1.121-0.396,2.252-0.059,2.911,0.494
					c0.682,0.553,0.953,1.245,1.032,1.704C617.634,203.774,617.573,204.034,617.547,204.032z"/>
			</g>
			<g>
				<path style="fill:#263238;" d="M630.804,203.902c-0.045,0.001-0.055-0.256-0.188-0.677c-0.131-0.414-0.431-1.01-1.058-1.461
					c-0.607-0.452-1.586-0.693-2.524-0.336c-0.93,0.33-1.726,1.32-1.716,2.473c-0.01,1.153,0.786,2.144,1.716,2.473
					c0.938,0.358,1.917,0.116,2.524-0.336c0.627-0.45,0.927-1.047,1.058-1.461C630.749,204.158,630.76,203.901,630.804,203.902
					c0.026-0.002,0.088,0.257,0.008,0.726c-0.079,0.459-0.349,1.151-1.031,1.704c-0.658,0.553-1.79,0.89-2.911,0.494
					c-1.111-0.36-2.087-1.539-2.073-2.925c-0.013-1.385,0.963-2.564,2.073-2.924c1.12-0.396,2.252-0.059,2.911,0.494
					c0.682,0.553,0.953,1.246,1.032,1.704C630.892,203.645,630.831,203.904,630.804,203.902z"/>
			</g>
			<g>
				<path style="fill:#263238;" d="M644.062,203.902c-0.045,0.001-0.055-0.256-0.188-0.677c-0.131-0.414-0.431-1.01-1.058-1.461
					c-0.607-0.452-1.586-0.693-2.524-0.336c-0.93,0.33-1.726,1.32-1.716,2.473c-0.01,1.153,0.786,2.144,1.716,2.473
					c0.938,0.358,1.917,0.116,2.524-0.336c0.627-0.45,0.927-1.047,1.058-1.461C644.007,204.158,644.018,203.901,644.062,203.902
					c0.026-0.002,0.088,0.257,0.008,0.726c-0.079,0.459-0.349,1.151-1.031,1.704c-0.658,0.553-1.79,0.89-2.911,0.494
					c-1.111-0.36-2.087-1.539-2.073-2.925c-0.013-1.385,0.963-2.564,2.073-2.924c1.12-0.396,2.252-0.059,2.911,0.494
					c0.682,0.553,0.953,1.246,1.032,1.704C644.15,203.645,644.089,203.904,644.062,203.902z"/>
			</g>
		</g>
	</g>
	<g>
		<path style="fill:#E8505B;" d="M155.453,135.245c0-8.585-9.02-14.024-18.217-9.72c-2.077,0.972-3.796,2.617-4.839,4.638
			c-2.314,4.482-1.292,9.6,0.806,13.85l7.157,18.14c1.031,2.614,4.737,2.599,5.747-0.024l7.018-18.234
			C155.555,138.34,155.453,135.245,155.453,135.245z M146.813,142.715c-6.182,3.595-12.448-3.05-9.059-9.607
			c0.451-0.872,1.141-1.604,1.963-2.083c6.183-3.595,12.449,3.05,9.059,9.607C148.326,141.505,147.635,142.237,146.813,142.715z"/>
		<g>
			<path style="fill:#263238;" d="M187.236,164.881c0,0,0.002-0.001,0.007-0.003l0.001,0c0,0,0.048,0.113,0.124,0.33
				c0.078,0.23,0.186,0.55,0.328,0.967c0.286,0.868,0.703,2.131,1.247,3.78c1.085,3.335,2.673,8.22,4.715,14.497l0.064,0.198
				l-0.205-0.038c-5.566-1.019-12.373-2.266-20.152-3.69l-0.139-0.025v-0.142v-0.001l0.271,0.136
				c-6.03,4.562-14.013,8.339-23.313,9.619c-2.318,0.314-4.708,0.492-7.147,0.476c-2.433-0.148-4.931-0.131-7.424-0.622
				c-2.525-0.276-5.003-1.027-7.537-1.686c-1.232-0.45-2.473-0.903-3.725-1.36c-0.636-0.204-1.235-0.503-1.838-0.798
				c-0.605-0.291-1.212-0.583-1.822-0.876c-4.828-2.43-9.428-5.693-13.458-9.754c-4.045-4.046-7.399-8.968-9.891-14.399
				c-4.988-10.855-6.108-24.077-2.229-36.308c3.541-11.142,10.986-20.518,20.063-26.672c9.176-6.045,19.902-8.923,29.977-8.421
				c10.115,0.297,19.439,3.837,26.805,8.898c7.309,5.194,12.862,11.759,16.221,18.602c3.448,6.81,4.981,13.673,5.343,19.694
				c0.479,6.044-0.353,11.267-1.369,15.383c-1.045,4.129-2.359,7.181-3.318,9.198c-0.49,1.006-0.88,1.769-1.162,2.249
				C187.426,164.548,187.31,164.752,187.236,164.881c0.065-0.129,0.166-0.332,0.382-0.763c0.271-0.523,0.648-1.283,1.12-2.295
				c0.927-2.028,2.207-5.082,3.217-9.202c0.982-4.107,1.78-9.308,1.276-15.316c-0.387-5.985-1.937-12.795-5.38-19.545
				c-3.354-6.782-8.882-13.28-16.139-18.415c-7.315-5.002-16.557-8.493-26.577-8.774c-9.981-0.484-20.594,2.377-29.675,8.366
				c-8.982,6.099-16.347,15.38-19.851,26.406c-3.838,12.103-2.735,25.191,2.195,35.938c2.463,5.378,5.778,10.255,9.78,14.266
				c3.986,4.025,8.538,7.263,13.317,9.678c0.603,0.291,1.205,0.581,1.804,0.87c0.597,0.293,1.19,0.59,1.82,0.793
				c1.239,0.455,2.468,0.906,3.688,1.353c2.51,0.656,4.964,1.406,7.466,1.684c2.47,0.492,4.947,0.478,7.359,0.631
				c2.418,0.021,4.789-0.15,7.089-0.456c9.226-1.247,17.159-4.97,23.166-9.48l0.271-0.204v0.34v0.001l-0.139-0.167
				c7.772,1.459,14.573,2.735,20.135,3.779l-0.141,0.16c-1.993-6.293-3.544-11.19-4.603-14.533c-0.518-1.658-0.914-2.927-1.186-3.8
				c-0.128-0.422-0.226-0.745-0.296-0.977c-0.065-0.221-0.092-0.341-0.092-0.341l0,0
				C187.238,164.881,187.236,164.881,187.236,164.881z"/>
		</g>
	</g>
	<g>
		<g>
			<g>
				<path style="fill:#455A64;" d="M511.447,122.913c-0.053-0.001-0.121-0.616-0.202-1.777c-0.026-0.582-0.079-1.298-0.238-2.134
					c-0.13-0.839-0.249-1.809-0.561-2.867c-0.47-2.145-1.441-4.682-2.977-7.376c-1.549-2.683-3.791-5.494-6.859-7.901
					c-3.059-2.384-6.926-4.435-11.415-5.323c-4.459-0.858-9.508-0.826-14.347,0.895c-2.434,0.785-4.792,2.002-6.968,3.555
					c-1.124,0.734-2.111,1.664-3.145,2.554c-0.937,0.993-1.922,1.961-2.736,3.092c-3.451,4.373-5.47,10.045-5.669,15.939
					c-0.09,5.898,1.652,11.664,4.886,16.201c0.759,1.17,1.695,2.185,2.583,3.223c0.99,0.94,1.931,1.917,3.018,2.704
					c2.098,1.657,4.395,2.987,6.789,3.89c4.751,1.954,9.793,2.231,14.288,1.59c4.526-0.669,8.489-2.53,11.66-4.763
					c3.181-2.255,5.557-4.954,7.234-7.559c1.665-2.617,2.758-5.103,3.331-7.223c0.362-1.041,0.528-2.005,0.699-2.836
					c0.2-0.827,0.287-1.54,0.341-2.119C511.296,123.523,511.394,122.912,511.447,122.913c0.053,0.001,0.059,0.615,0.021,1.792
					c-0.005,0.59-0.045,1.318-0.199,2.167c-0.125,0.853-0.249,1.844-0.573,2.921c-0.497,2.189-1.533,4.778-3.181,7.52
					c-1.66,2.73-4.059,5.579-7.324,7.981c-3.253,2.379-7.364,4.383-12.094,5.141c-4.696,0.729-9.989,0.487-15.007-1.529
					c-2.526-0.933-4.954-2.317-7.175-4.051c-1.148-0.826-2.148-1.847-3.194-2.836c-0.944-1.087-1.933-2.157-2.74-3.387
					c-3.428-4.774-5.288-10.873-5.188-17.1c0.205-6.223,2.359-12.222,6.014-16.822c0.865-1.189,1.905-2.209,2.9-3.249
					c1.092-0.937,2.141-1.908,3.328-2.677c2.302-1.623,4.794-2.887,7.362-3.697c5.109-1.77,10.407-1.755,15.062-0.799
					c4.687,0.986,8.696,3.187,11.83,5.721c3.144,2.557,5.403,5.519,6.928,8.327c1.512,2.819,2.422,5.455,2.812,7.666
					c0.272,1.091,0.347,2.088,0.431,2.946c0.113,0.856,0.118,1.585,0.094,2.175C511.536,122.301,511.5,122.914,511.447,122.913z"/>
			</g>
			<g>
				<path style="fill:#455A64;" d="M505.856,105.451c0.062,0.086-0.443,0.524-1.416,1.248c-0.534,0.383-1.131,0.812-1.799,1.291
					c-0.356,0.244-0.729,0.52-1.144,0.78c-0.44,0.23-0.899,0.47-1.376,0.719c-3.74,2.161-9.665,4.368-16.431,4.138
					c-0.84-0.037-1.669-0.074-2.487-0.111c-0.808-0.126-1.604-0.251-2.387-0.373c-0.39-0.066-0.78-0.118-1.16-0.195
					c-0.375-0.1-0.746-0.199-1.114-0.297c-0.733-0.203-1.458-0.376-2.149-0.597c-2.743-0.954-5.111-2.066-6.971-3.212
					c-3.745-2.265-5.569-4.325-5.427-4.457c0.151-0.173,2.187,1.551,5.96,3.51c1.874,0.995,4.207,1.964,6.863,2.808
					c0.668,0.194,1.368,0.341,2.073,0.522c0.354,0.088,0.711,0.176,1.071,0.266c0.367,0.056,0.738,0.112,1.111,0.168
					c0.748,0.11,1.509,0.222,2.281,0.336c0.78,0.032,1.57,0.063,2.371,0.096c6.433,0.222,12.131-1.706,15.911-3.573
					c0.483-0.21,0.947-0.411,1.392-0.604c0.424-0.222,0.809-0.459,1.179-0.664c0.708-0.39,1.341-0.739,1.907-1.051
					C505.174,105.638,505.795,105.365,505.856,105.451z"/>
			</g>
			<g>
				<path style="fill:#455A64;" d="M461.143,139.433c-0.062-0.086,0.442-0.525,1.416-1.249c0.534-0.383,1.131-0.811,1.799-1.291
					c0.356-0.244,0.729-0.52,1.145-0.78c0.44-0.23,0.899-0.47,1.376-0.719c3.74-2.161,9.665-4.368,16.431-4.138
					c0.84,0.037,1.669,0.074,2.487,0.111c0.808,0.126,1.604,0.251,2.387,0.373c0.39,0.066,0.78,0.118,1.16,0.195
					c0.375,0.1,0.746,0.199,1.114,0.297c0.733,0.203,1.458,0.376,2.149,0.597c2.743,0.954,5.111,2.066,6.971,3.212
					c3.745,2.265,5.568,4.325,5.427,4.457c-0.151,0.173-2.187-1.551-5.96-3.51c-1.874-0.995-4.207-1.964-6.863-2.808
					c-0.668-0.194-1.368-0.341-2.073-0.522c-0.354-0.088-0.711-0.176-1.071-0.266c-0.367-0.056-0.738-0.112-1.111-0.168
					c-0.749-0.11-1.509-0.222-2.281-0.336c-0.78-0.031-1.57-0.063-2.371-0.096c-6.433-0.222-12.131,1.706-15.911,3.573
					c-0.483,0.21-0.947,0.411-1.392,0.604c-0.424,0.222-0.809,0.46-1.179,0.664c-0.708,0.39-1.341,0.739-1.907,1.051
					C461.825,139.247,461.204,139.519,461.143,139.433z"/>
			</g>
			<g>
				<path style="fill:#455A64;" d="M511.431,123.562c-0.01,0.424-12.53,0.464-27.96,0.09c-15.435-0.375-27.935-1.022-27.925-1.447
					c0.01-0.424,12.527-0.464,27.962-0.089C498.939,122.49,511.442,123.138,511.431,123.562z"/>
			</g>
			<g>
				<path style="fill:#455A64;" d="M482.201,150.151c-0.424-0.01-0.465-12.526-0.09-27.951c0.375-15.43,1.022-27.926,1.447-27.916
					c0.424,0.01,0.464,12.523,0.09,27.953C483.272,137.663,482.624,150.161,482.201,150.151z"/>
			</g>
			<g>
				<path style="fill:#455A64;" d="M482.201,150.109c-0.105,0.162-3.184-1.925-6.738-6.652c-1.757-2.36-3.601-5.398-4.995-9.07
					c-1.388-3.664-2.256-7.978-2.163-12.522c0.081-4.559,1.227-8.824,2.821-12.396c1.595-3.587,3.597-6.516,5.458-8.79
					c3.764-4.548,6.868-6.564,6.972-6.402c0.151,0.175-2.661,2.462-6.116,7.072c-1.709,2.304-3.553,5.206-5.015,8.683
					c-1.463,3.466-2.507,7.531-2.584,11.863c-0.089,4.335,0.695,8.459,1.956,12.007c1.268,3.554,2.952,6.549,4.552,8.927
					C479.585,147.593,482.357,149.94,482.201,150.109z"/>
			</g>
			<g>
				<path style="fill:#455A64;" d="M484.183,94.292c0.105-0.162,3.184,1.925,6.738,6.652c1.757,2.36,3.601,5.398,4.995,9.07
					c1.388,3.664,2.257,7.978,2.163,12.522c-0.081,4.559-1.226,8.824-2.821,12.396c-1.595,3.587-3.597,6.515-5.458,8.79
					c-3.764,4.548-6.868,6.564-6.972,6.402c-0.151-0.175,2.661-2.462,6.116-7.072c1.709-2.304,3.553-5.206,5.015-8.683
					c1.463-3.466,2.507-7.531,2.584-11.863c0.089-4.335-0.694-8.459-1.956-12.007c-1.268-3.554-2.952-6.549-4.552-8.927
					C486.8,96.809,484.027,94.461,484.183,94.292z"/>
			</g>
		</g>
		<g>
			<g>
				<path style="fill:#263238;" d="M455.568,163.859c0,0,0.001,0.002,0.002,0.007l0,0.001c0,0-0.117,0.038-0.34,0.094
					c-0.236,0.057-0.564,0.137-0.992,0.24c-0.89,0.208-2.185,0.511-3.876,0.906c-3.418,0.784-8.425,1.932-14.859,3.408l-0.203,0.046
					l0.056-0.201c1.51-5.454,3.356-12.123,5.466-19.744l0.038-0.136l0.141,0.012l0.001,0l-0.159,0.258
					c-4.008-6.412-7.061-14.699-7.509-24.075c-0.107-2.337-0.071-4.733,0.161-7.161c0.364-2.41,0.568-4.9,1.279-7.34
					c0.499-2.49,1.468-4.891,2.349-7.357c0.557-1.187,1.119-2.383,1.685-3.589c0.26-0.615,0.611-1.185,0.958-1.76
					c0.344-0.577,0.688-1.156,1.035-1.737c2.849-4.593,6.509-8.885,10.912-12.537c4.39-3.669,9.59-6.572,15.221-8.572
					c11.256-4.004,24.525-3.944,36.362,1.007c10.783,4.517,19.46,12.766,24.783,22.354c5.205,9.677,7.118,20.617,5.724,30.606
					c-1.195,10.048-5.549,19.021-11.246,25.908c-5.823,6.819-12.856,11.766-19.97,14.503c-7.089,2.829-14.061,3.746-20.091,3.571
					c-6.063-0.06-11.191-1.353-15.2-2.731c-4.02-1.408-6.942-2.988-8.867-4.123c-0.958-0.577-1.683-1.034-2.137-1.357
					C455.883,164.077,455.691,163.944,455.568,163.859c0.123,0.076,0.316,0.195,0.726,0.449c0.497,0.316,1.221,0.76,2.187,1.32
					c1.937,1.103,4.866,2.649,8.88,4.022c4.003,1.343,9.113,2.6,15.141,2.632c5.996,0.146,12.917-0.792,19.945-3.621
					c7.054-2.738,14.017-7.666,19.776-14.438c5.633-6.842,9.931-15.737,11.101-25.692c1.369-9.899-0.537-20.724-5.695-30.301
					c-5.276-9.488-13.866-17.649-24.537-22.119c-11.714-4.899-24.848-4.963-35.991-1.008c-5.576,1.975-10.728,4.844-15.078,8.474
					c-4.364,3.612-7.993,7.859-10.823,12.405c-0.344,0.575-0.686,1.148-1.027,1.719c-0.345,0.569-0.694,1.133-0.952,1.742
					c-0.563,1.194-1.122,2.378-1.676,3.553c-0.877,2.442-1.842,4.82-2.341,7.287c-0.71,2.416-0.916,4.885-1.283,7.274
					c-0.235,2.407-0.277,4.783-0.176,7.101c0.422,9.3,3.425,17.532,7.383,23.916l0.179,0.289l-0.339-0.031l-0.001,0l0.178-0.123
					c-2.144,7.612-4.02,14.273-5.554,19.72l-0.147-0.154c6.445-1.426,11.461-2.535,14.885-3.293c1.697-0.368,2.997-0.65,3.89-0.844
					c0.431-0.09,0.762-0.159,1-0.208c0.225-0.045,0.348-0.061,0.348-0.061l0,0C455.568,163.861,455.568,163.859,455.568,163.859z"/>
			</g>
		</g>
	</g>
</g>
<g id="Character_3">
	<g>
		<path style="fill:#E8505B;" d="M497.698,187.898c-4.889,1.138-8.022,6.093-9.066,11.002c-1.044,4.91-0.535,10.008-1.003,15.005
			c-0.468,4.998-2.219,10.309-6.425,13.049c1.396,0.404,2.791,0.807,4.187,1.211c-0.809,2.601-2.592,4.886-4.918,6.303
			c1.619,1.26,3.668,1.958,5.72,1.949c-2.464,0.654-3.145,4.168-1.784,6.323c1.361,2.155,3.949,3.17,6.419,3.798
			c2.912,0.741,6.02,1.129,8.9,0.27c4.055-1.208,7.081-4.77,8.633-8.706c1.552-3.936,1.834-8.245,1.954-12.474
			c0.301-10.594-0.317-21.293-3.02-31.541c-0.654-2.479-1.558-5.11-3.666-6.57c-2.107-1.459-5.713-0.869-6.346,1.616"/>
		<path style="fill:#455A64;" d="M608.234,340.76c-1.16-4.425-7.924-29.317-13.966-45.582
			c-6.707-18.051-20.544-21.774-20.544-21.774c-31.149-10.63-59.141-10.691-89.033-0.329c-0.956,0.297-1.886,0.615-2.777,0.962
			c-0.033,0.012-0.065,0.022-0.098,0.034l0,0.002c-22.169,8.702-24.457,32.119-24.457,32.119l-9.315,56.828
			c-0.102,0.454-0.173,0.908-0.224,1.363l-0.088,0.539l0.039-0.004c-0.357,5.348,2.711,10.574,7.618,12.832
			c13.019,5.992,25.443,4.57,36.119,0.162l-7.756,11.301h48.32h44.066l-6.177-14.935l2.054-8.982l14.31,17.22
			c1.714,2.062,4.009,3.559,6.587,4.296c16.496,1.918,19.167-22.655,16.064-36.95l0.001-0.001"/>
		<path style="fill:#FFBE9D;" d="M549.695,267.206c0,0-14.901,74.98-20.156,74.424c-5.255-0.557-29.88-73.007-29.88-73.007
			S531.139,260.226,549.695,267.206z"/>
		<g>
			<g>
				<g>
					<g>
						<g>
							<path style="fill:#FFBE9D;" d="M507.418,272.743c-0.079-8.632-0.32-17.718-0.32-17.718s-11.132-1.779-13.524-16.273
								c-2.281-13.823-0.196-45.79-0.196-45.79l0,0c15.965-6.624,34.952-2.395,46.443,10.346l0,0l-0.514,70.118
								c-0.06,8.14-7.106,14.572-15.822,14.441h0C514.684,287.735,507.494,280.967,507.418,272.743z"/>
						</g>
						<g>
							<g>
								<path style="fill:#263238;" d="M497.069,217.151c-0.029,0.983,0.78,1.818,1.806,1.866c1.024,0.049,1.879-0.706,1.908-1.689
									c0.029-0.983-0.78-1.819-1.803-1.868C497.953,215.411,497.098,216.168,497.069,217.151z"/>
							</g>
							<g>
								<g>
									<path style="fill:#263238;" d="M494.617,215.829c0.232,0.241,1.636-0.81,3.638-0.817c2-0.035,3.476,0.986,3.691,0.739
										c0.106-0.109-0.132-0.545-0.774-1.008c-0.632-0.46-1.71-0.905-2.957-0.892c-1.247,0.015-2.294,0.48-2.893,0.954
										C494.708,215.281,494.503,215.721,494.617,215.829z"/>
								</g>
							</g>
						</g>
						<g>
							<g>
								<path style="fill:#263238;" d="M517.319,218.123c-0.029,0.983,0.78,1.818,1.806,1.867c1.024,0.049,1.879-0.706,1.908-1.689
									c0.029-0.983-0.78-1.819-1.804-1.868C518.203,216.383,517.348,217.14,517.319,218.123z"/>
							</g>
							<g>
								<g>
									<path style="fill:#263238;" d="M515.513,216.429c0.232,0.241,1.637-0.81,3.638-0.817c2-0.036,3.476,0.986,3.692,0.739
										c0.106-0.109-0.13-0.545-0.775-1.008c-0.632-0.46-1.709-0.904-2.956-0.892c-1.247,0.015-2.294,0.48-2.894,0.954
										C515.607,215.881,515.4,216.321,515.513,216.429z"/>
								</g>
							</g>
						</g>
						<g>
							<g>
								<path style="fill:#263238;" d="M508.337,231.322c0.009-0.114-1.237-0.321-3.256-0.567c-0.511-0.05-0.996-0.148-1.084-0.497
									c-0.123-0.369,0.088-0.921,0.332-1.518c0.473-1.24,0.968-2.54,1.488-3.902c2.066-5.556,3.558-10.123,3.334-10.204
									c-0.224-0.081-2.081,4.356-4.147,9.912c-0.497,1.37-0.973,2.676-1.425,3.925c-0.19,0.582-0.519,1.243-0.253,2.008
									c0.14,0.381,0.517,0.656,0.845,0.742c0.328,0.098,0.616,0.102,0.869,0.115C507.071,231.435,508.33,231.436,508.337,231.322z
									"/>
							</g>
						</g>
						<g>
							<path style="fill:#EB996E;" d="M507.098,255.025c0,0,9.764,0.57,19.399-5.301c0,0-4.653,9.995-19.182,8.726L507.098,255.025z
								"/>
						</g>
						<g>
							<path style="fill:#EB996E;" d="M509.213,236.143c0.714-0.957,1.973-1.487,3.226-1.36c0.87,0.088,1.75,0.502,2.282,1.206
								c0.532,0.704,0.649,1.708,0.173,2.386c-0.536,0.763-1.664,0.945-2.621,0.68c-0.958-0.266-1.784-0.89-2.568-1.512
								c-0.217-0.172-0.439-0.352-0.576-0.588c-0.136-0.237-0.167-0.548-0.001-0.745"/>
						</g>
						<g>
							<g>
								<path style="fill:#263238;" d="M514.238,232.672c-0.326-0.017-0.317,2.157-2.168,3.71c-1.848,1.559-4.166,1.329-4.181,1.633
									c-0.03,0.137,0.519,0.419,1.497,0.44c0.959,0.027,2.358-0.29,3.491-1.24c1.129-0.953,1.609-2.218,1.678-3.11
									C514.633,233.195,514.387,232.658,514.238,232.672z"/>
							</g>
						</g>
					</g>
					<g>
						<path style="fill:#E8505B;" d="M532.004,191.622c-5.174,7.663-19.089,15.695-29.119,17.679
							c1.147-1.567,7.261-5.487,8.409-7.054c-4.502,3.487-10.948,8.158-16.994,8.573c-0.715,0.049-1.49,0.061-2.086-0.287
							c-0.811-0.474-0.991-1.422-1.098-2.26c-0.454-3.539-0.315-9.624,0.187-13.153c0.502-3.529,2.057-7.059,5.069-9.471
							c3.824-3.063,9.36-3.9,14.585-4.118c4.383-0.183,8.907-0.003,12.943,1.508c4.036,1.511,7.519,4.578,8.172,8.327"/>
					</g>
					<g>
						<path style="fill:#E8505B;" d="M549.155,226.71c0.665-3.767,1.184-7.341,1.278-9.722c0.296-7.494,2.538-34.54-23.233-31.86
							l1.459,7.273c0,0-4.804,16.837,6.26,28.195c0,0-3.152,23.724,4.546,31.389C539.465,251.984,547.728,234.798,549.155,226.71"/>
					</g>
					<g>
						<path style="fill:#FFBE9D;" d="M534.59,219.343c1.549-0.31,3.19-0.277,4.672,0.271c1.482,0.547,2.79,1.639,3.437,3.081
							c0.649,1.445,0.596,3.144,0.068,4.637c-0.528,1.494-1.498,2.799-2.619,3.918c-0.805,0.804-1.722,1.539-2.805,1.886
							c-1.083,0.347-2.362,0.248-3.235-0.481"/>
					</g>
					<g>
						<g>
							<path style="fill:#EB996E;" d="M535.505,228.744c-0.177,0.059,0.503,0.993,1.919,0.603c0.682-0.184,1.344-0.788,1.744-1.541
								c0.401-0.765,0.66-1.601,0.757-2.579c0.092-0.969-0.134-1.997-0.673-2.727c-0.513-0.744-1.348-1.181-2.046-1.191
								c-1.459-0.024-1.905,0.99-1.74,1.018c0.117,0.117,0.68-0.407,1.637-0.183c0.916,0.163,1.823,1.418,1.635,2.987
								c-0.164,1.598-0.768,3.062-1.616,3.432C536.242,229.017,535.602,228.615,535.505,228.744z"/>
						</g>
					</g>
				</g>
			</g>
		</g>
		<g>
			<path style="fill:#263238;" d="M483.751,342.588c-0.144,0-0.26-5.891-0.26-13.155c0-7.267,0.117-13.157,0.26-13.157
				c0.144,0,0.26,5.889,0.26,13.157C484.011,336.697,483.895,342.588,483.751,342.588z"/>
		</g>
		<g>
			<g>
				<path style="fill:#FFBE9D;" d="M521.299,315.733c0,0-12.969,0.143-13.788,3.014c-1.359,4.766,1.069,30.891,1.069,30.891
					l11.947,3.968c0,0,5.762-1.33,3.103-12.411c-2.66-11.082-7.899-19.947-7.899-19.947s15.878,0.443,15.434-3.103
					C530.722,314.598,521.299,315.733,521.299,315.733z"/>
				<path style="fill:#FFBE9D;" d="M516.138,323.441c0.714-0.136,16.586-1.45,15.589,1.088c-0.997,2.538-15.589,3.172-15.589,3.172
					V323.441z"/>
			</g>
			<polygon style="fill:#263238;" points="567.127,285.017 565.167,334.583 557.927,353.605 513.445,354.527 511.648,293.138 			"/>
		</g>
		<g>
			<path style="fill:#263238;" d="M506.482,333.201c0.007,0.017-0.181,0.113-0.545,0.282c-0.417,0.186-0.947,0.423-1.601,0.714
				c-1.462,0.626-3.47,1.486-5.925,2.536c-5.078,2.118-11.988,5.001-19.622,8.186c-3.839,1.577-7.493,3.079-10.828,4.449
				c-3.335,1.349-6.333,2.568-8.646,3.976c-2.334,1.372-3.927,2.914-4.837,4.115c-0.915,1.202-1.246,1.988-1.3,1.959
				c-0.016-0.008,0.065-0.202,0.236-0.566c0.163-0.368,0.46-0.887,0.9-1.514c0.874-1.257,2.465-2.877,4.808-4.308
				c2.321-1.469,5.336-2.734,8.655-4.106c3.33-1.382,6.979-2.896,10.812-4.487c7.657-3.13,14.587-5.963,19.68-8.045
				c2.481-0.987,4.511-1.795,5.988-2.383c0.669-0.255,1.211-0.461,1.638-0.624C506.274,333.248,506.475,333.184,506.482,333.201z"/>
		</g>
		<g>
			<path style="fill:#263238;" d="M521.187,352.622c0.027,0.024-0.32,0.447-0.972,1.192c-0.654,0.743-1.625,1.797-2.876,3.048
				c-2.484,2.521-6.085,5.834-10.224,9.299c-4.145,3.461-8.025,6.434-10.885,8.515c-1.427,1.044-2.6,1.864-3.418,2.419
				c-0.82,0.553-1.283,0.845-1.304,0.816c-0.021-0.029,0.402-0.377,1.185-0.98c0.858-0.659,1.974-1.517,3.316-2.549
				c2.799-2.153,6.636-5.166,10.771-8.62c4.13-3.457,7.758-6.716,10.301-9.162c1.28-1.214,2.289-2.226,2.986-2.924
				C520.762,352.975,521.16,352.598,521.187,352.622z"/>
		</g>
		<g>
			<path style="fill:#263238;" d="M588.182,384.342c-0.109,0.093-6.636-7.384-14.575-16.7c-7.942-9.319-14.289-16.946-14.18-17.039
				c0.109-0.093,6.634,7.383,14.576,16.701C581.943,376.62,588.292,384.249,588.182,384.342z"/>
		</g>
		<g>
			<path style="fill:#263238;" d="M600.754,348.329c-0.014,0.033-0.528-0.151-1.446-0.514c-0.92-0.359-2.235-0.917-3.845-1.64
				c-3.221-1.443-7.6-3.605-12.267-6.301c-4.666-2.701-8.725-5.417-11.583-7.488c-1.43-1.035-2.57-1.896-3.339-2.513
				c-0.772-0.615-1.188-0.968-1.167-0.996c0.022-0.029,0.479,0.27,1.288,0.834c0.888,0.615,2.041,1.413,3.43,2.375
				c2.906,1.989,6.982,4.647,11.632,7.339c4.651,2.686,8.988,4.892,12.162,6.418c1.526,0.724,2.794,1.325,3.77,1.788
				C600.281,348.048,600.768,348.296,600.754,348.329z"/>
		</g>
		<g>
			<path style="fill:#263238;" d="M577.733,337.454c-0.143,0.018-0.923-5.273-1.743-11.816c-0.82-6.546-1.37-11.864-1.227-11.882
				c0.143-0.018,0.923,5.272,1.743,11.818C577.327,332.116,577.876,337.436,577.733,337.454z"/>
		</g>
		<g>
			<path style="fill:#263238;" d="M540.106,228.648c0.019,0.015-0.124,0.235-0.411,0.634c-0.34,0.457-0.759,1.022-1.266,1.703
				c-1.175,1.523-2.748,3.564-4.607,5.975l-0.037-0.321c2.218,1.742,4.783,3.757,7.51,5.9c0.229,0.181,0.456,0.361,0.68,0.538
				l-0.365,0.043c2.398-3.005,4.619-5.787,6.498-8.142l0.035,0.302c-1.98-1.613-3.643-2.969-4.893-3.987
				c-0.532-0.45-0.975-0.826-1.34-1.135c-0.304-0.267-0.459-0.417-0.445-0.435c0.014-0.017,0.196,0.099,0.526,0.333
				c0.385,0.284,0.852,0.629,1.413,1.043c1.279,0.982,2.981,2.289,5.007,3.844l0.17,0.13l-0.134,0.171
				c-1.859,2.371-4.055,5.173-6.427,8.198l-0.16,0.205l-0.205-0.162c-0.224-0.177-0.451-0.357-0.68-0.538
				c-2.713-2.161-5.265-4.193-7.471-5.95l-0.181-0.144l0.143-0.177c1.918-2.364,3.542-4.365,4.754-5.859
				c0.547-0.65,0.999-1.189,1.366-1.624C539.906,228.824,540.087,228.633,540.106,228.648z"/>
		</g>
		<g>
			<g>
				<path style="fill:#FFBE9D;" d="M559.187,349.861c-7.267-0.137-16.952-1.578-21.475-2.301c-8.415-1.345-8.324-2.108-8.025-3.07
					c0.805-2.584,14.88,1.801,12.355-0.906c-2.526-2.705-17.786-3.35-16.834-6.014c1.24-3.47,15.898,1.392,17.167,1.712
					c1.232,0.31,1.726-1.516,0.566-1.742c-1.666-0.326-19.092-4.183-17.907-7.604c0.657-1.897,3.94-0.308,3.94-0.308
					s16.069,4.819,16.575,3.184c0.514-1.66-8.834-4.808-12.056-5.647c-3.183-0.828-4.122-2.688-2.622-3.803
					c1.023-0.76,10.944,1.572,14.111,2.475c3.167,0.903,11.817,3.536,8.517-1.25c-0.052-0.075-0.091-0.151-0.141-0.226
					c-3.378-4.625-4.448-9.307-3.836-10.872c0.597-1.527,2.748-1.426,3.56,0.011c0.148,0.222,0.271,0.469,0.326,0.766
					c0.023,0.123,0.085,0.282,0.121,0.416c0.587,1.535,1.867,3.557,2.917,5.09c0.995,1.451,2.221,2.731,3.643,3.766
					c1.644,1.195,5.787,5.576,7.038,6.355"/>
			</g>
		</g>
	</g>
</g>
<g id="Character_2">
	<g>
		<g>
			<g>
				<g>
					<g>
						<g>
							<g>
								<path style="fill:#B78876;" d="M261.591,290.907L261.591,290.907c-9.361-0.169-16.943-7.658-17.225-17.015
									c-0.235-7.795-0.413-15.3-0.413-15.3s-14.309-1.329-15.359-15.489c-1.049-14.16-0.601-46.852-0.601-46.852l0,0
									c15.969-8.062,35.051-6.85,49.872,3.167l2.2,1.487l-0.608,72.602C279.375,283.266,271.349,291.083,261.591,290.907z"/>
							</g>
							<g>
								<g>
									<path style="fill:#263238;" d="M243.595,234.377c0.004-0.154-1.218-0.323-3.197-0.474
										c-0.514-0.024-0.922-0.115-0.976-0.387c-0.111-0.303,0.053-0.86,0.275-1.484c0.423-1.322,0.851-2.659,1.299-4.061
										c1.784-5.782,2.991-10.541,2.698-10.632c-0.294-0.09-1.977,4.522-3.761,10.304c-0.419,1.41-0.82,2.757-1.215,4.087
										c-0.151,0.602-0.464,1.313-0.148,2.139c0.167,0.413,0.588,0.693,0.93,0.761c0.344,0.082,0.633,0.064,0.878,0.06
										C242.363,234.639,243.592,234.53,243.595,234.377z"/>
								</g>
							</g>
							<g>
								<path style="fill:#FFFFFF;" d="M250.069,236.142c-3.943,1.837-5.768,2.386-9.4,3.372c0,0,2.504,3.502,6.497,1.754
									C251.312,239.454,250.069,236.142,250.069,236.142z"/>
							</g>
							<g>
								<path style="fill:#A36957;" d="M243.917,258.389c0,0,9.001,0.176,18.151-6.39c0,0-3.738,10.468-17.957,10.064
									L243.917,258.389z"/>
							</g>
						</g>
					</g>
					<g>
						<g>
							<path style="fill:#B78876;" d="M279.279,218.416c0.008-1.144,0.901-2.113,2.045-2.145c2.644-0.073,6.969,0.976,7.375,8.273
								c0.58,10.424-9.446,7.824-9.481,7.526C279.191,231.837,279.252,222.467,279.279,218.416z"/>
						</g>
						<g>
							<g>
								<path style="fill:#A36957;" d="M281.516,227.974c0.044-0.036,0.189,0.117,0.503,0.241c0.307,0.12,0.827,0.186,1.359-0.048
									c1.079-0.466,1.909-2.266,1.854-4.147c-0.026-0.951-0.275-1.843-0.653-2.572c-0.361-0.745-0.884-1.25-1.443-1.318
									c-0.559-0.097-0.933,0.257-1.044,0.557c-0.123,0.299-0.046,0.504-0.1,0.524c-0.028,0.028-0.233-0.162-0.174-0.597
									c0.032-0.209,0.14-0.462,0.374-0.676c0.239-0.217,0.601-0.342,0.99-0.321c0.807,0.011,1.572,0.71,1.987,1.511
									c0.46,0.802,0.762,1.803,0.791,2.87c0.05,2.104-0.916,4.13-2.398,4.649c-0.723,0.232-1.347,0.045-1.676-0.184
									C281.548,228.225,281.48,227.995,281.516,227.974z"/>
							</g>
						</g>
					</g>
				</g>
			</g>
			<g>
				<g>
					<path style="fill:#263238;" d="M232.429,220.256c0.036,1.016,0.927,1.823,1.989,1.805c1.06-0.018,1.892-0.855,1.855-1.871
						c-0.036-1.016-0.926-1.825-1.986-1.807C233.225,218.402,232.393,219.24,232.429,220.256z"/>
				</g>
				<g>
					<g>
						<path style="fill:#263238;" d="M229.164,218.328c0.256,0.233,1.634-0.946,3.7-1.087c2.061-0.171,3.653,0.784,3.859,0.515
							c0.102-0.12-0.172-0.554-0.867-0.988c-0.684-0.432-1.825-0.819-3.111-0.722c-1.286,0.099-2.335,0.649-2.922,1.178
							C229.222,217.756,229.039,218.225,229.164,218.328z"/>
					</g>
				</g>
			</g>
			<g>
				<g>
					<path style="fill:#263238;" d="M252.961,219.9c0.036,1.016,0.927,1.823,1.989,1.805c1.06-0.018,1.892-0.855,1.856-1.871
						c-0.036-1.016-0.927-1.825-1.987-1.807C253.757,218.045,252.925,218.883,252.961,219.9z"/>
				</g>
				<g>
					<g>
						<path style="fill:#263238;" d="M250.131,218.328c0.256,0.233,1.635-0.946,3.7-1.087c2.061-0.171,3.653,0.784,3.859,0.515
							c0.102-0.12-0.17-0.554-0.867-0.988c-0.684-0.432-1.825-0.819-3.111-0.722c-1.286,0.099-2.335,0.649-2.923,1.178
							C250.191,217.756,250.007,218.225,250.131,218.328z"/>
					</g>
				</g>
			</g>
			<g>
				<path style="fill:none;stroke:#4E585D;stroke-width:0.05;stroke-miterlimit:10;" d="M220.094,182.261"/>
			</g>
			<path style="fill:#263238;" d="M263.797,191.357c-1.933,4.369-0.958,9.864,2.359,13.301c1.396,1.447,3.152,2.545,4.361,4.152
				c2.505,3.329,2.097,7.907,2.488,12.055c0.181,1.919,0.631,3.958,2.045,5.268s4.053,1.4,5.037-0.258
				c0.298-0.503,0.411-1.09,0.519-1.665c0.868-4.618,1.737-9.237,2.605-13.855c0.651-3.464,1.304-7.018,0.704-10.492
				c-0.701-4.055-3.177-7.771-6.649-9.979c-3.473-2.208-7.888-2.873-11.857-1.787"/>
			<path style="fill:#263238;" d="M265.971,188.43c-4.808-0.921-7.508-2.457-10.909-3.99c-3.402-1.533-7.246-2.248-10.837-1.231
				c-2.42,0.685-4.712,2.139-7.207,2.115c-2.474-0.024-4.694-1.496-7.061-2.244c-3.208-1.013-6.786-0.647-9.787,1.001
				c-2.328,1.279-4.419,3.569-4.616,6.365c-0.196,2.796,2.3,5.693,4.803,4.899c-2.615,0.909-3.68,4.761-2.372,7.336
				c1.308,2.576,4.335,3.746,7.049,3.316c2.714-0.43,5.119-2.196,7.058-4.303c0.063,3.118,3.189,5.311,6.084,5.217
				c2.896-0.094,5.521-1.829,7.913-3.618c2.391-1.789,4.812-3.738,7.654-4.371c1.98-0.441,4.028-0.206,6.036-0.444
				c2.008-0.238,4.149-1.112,5.119-3.029c0.97-1.917,4.817-4.112,2.801-4.167"/>
			<g>
				<path style="fill:#263238;" d="M237.499,203.779c0.034-0.042,0.349,0.285,1.068,0.571c0.716,0.278,1.874,0.388,3.208-0.01
					c0.664-0.191,1.371-0.487,2.067-0.909c0.7-0.421,1.409-0.955,2.168-1.506c0.758-0.552,1.573-1.132,2.509-1.603
					c0.932-0.468,2.027-0.779,3.142-0.788c2.227-0.04,4.241,0.561,6.064,0.396c1.832-0.098,3.268-1.114,4.081-2.216
					c0.843-1.1,1.129-2.233,1.214-2.998c0.08-0.775,0.002-1.213,0.053-1.219c0.018-0.003,0.047,0.103,0.088,0.311
					c0.046,0.207,0.073,0.52,0.062,0.923c-0.024,0.798-0.265,2.005-1.119,3.202c-0.423,0.591-0.988,1.185-1.729,1.637
					c-0.734,0.458-1.645,0.764-2.608,0.839c-1.939,0.193-3.984-0.4-6.089-0.354c-2.132-0.003-3.882,1.188-5.387,2.26
					c-0.764,0.539-1.49,1.066-2.229,1.488c-0.74,0.426-1.486,0.715-2.189,0.893c-1.41,0.373-2.65,0.197-3.382-0.158
					c-0.368-0.177-0.624-0.367-0.777-0.513C237.559,203.874,237.487,203.792,237.499,203.779z"/>
			</g>
			<g>
				<path style="fill:#263238;" d="M264.514,183.488c0.154,0.031-0.171,1.541,0.289,3.32c0.43,1.788,1.426,2.968,1.305,3.067
					c-0.076,0.11-1.338-1.003-1.81-2.941C263.805,185.002,264.395,183.426,264.514,183.488z"/>
			</g>
			<g>
				<path style="fill:#263238;" d="M269.843,183.269c0.109,0.115-1.18,1.335-2.145,3.247c-0.988,1.9-1.226,3.66-1.383,3.638
					c-0.131,0.008-0.12-1.868,0.919-3.876C268.256,184.263,269.773,183.159,269.843,183.269z"/>
			</g>
		</g>
		<polygon style="fill:#B78876;" points="336.708,331.545 358.476,387.557 325.156,387.557 309.627,347.683 		"/>
		<path style="fill:#B78876;" d="M218.712,286.067c0,0-28.685,29.552-41.111,29.552c-4.059,0-7.242-49.218-7.29-63.406l0,0
			c1.106-2.605,1.596-3.595,2.792-5.096c1.122-1.408,2.193-2.861,3.605-3.983c1.713-1.363,4.06-3.081,5.629-3.632
			c1.941-0.682,2.101-3.337,0.337-3.866c-1.764-0.527-7.155,1.222-11.977,5.797c-4.821,4.575-3.378-5.661-2.919-9.398
			c0.46-3.737,1.336-15.354,0.297-16.375c-1.524-1.497-3.459-0.107-3.83,3.634c-0.377,3.787-2.277,14.902-4.243,14.615
			c-1.936-0.281,0.66-19.283,0.66-19.283s1.213-3.989-1.045-4.395c-4.074-0.733-5.344,19.631-5.417,21.57
			c-0.05,1.349-2.199,1.115-2.067-0.332c0.136-1.49,3.032-18.905-1.107-19.691c-3.177-0.603-1.203,16.745-3.811,20.077
			c-2.61,3.33-0.15-13.342-3.211-13.794c-1.139-0.167-2.017-0.135-2.046,9.607c-0.015,5.236,1.996,13.146,1.222,23.231l0,0
			c1.325,29.756-0.138,113.333,32.979,103.425c36.417-10.895,61.295-34.749,61.295-34.749L218.712,286.067z"/>
		<g>
			<path style="fill:#263238;" d="M299.086,312.553c0.035-0.007,0.149,0.412,0.325,1.176c0.178,0.764,0.406,1.875,0.664,3.253
				c0.518,2.755,1.123,6.583,1.594,10.836c0.469,4.255,0.714,8.123,0.81,10.925c0.049,1.401,0.069,2.535,0.062,3.319
				c-0.005,0.784-0.025,1.218-0.061,1.219s-0.085-0.431-0.142-1.212c-0.061-0.889-0.137-1.995-0.227-3.307
				c-0.19-2.792-0.493-6.644-0.96-10.887c-0.47-4.241-1.016-8.066-1.44-10.832c-0.199-1.3-0.366-2.396-0.501-3.277
				C299.098,312.991,299.051,312.559,299.086,312.553z"/>
		</g>
		<g>
			<g>
				<g>
					<g>
						<g>
							<g>
								<g>
									<path style="fill:#455A64;" d="M213.849,387.557l91.724,0.468l-3.091-19.364c1.417-13.326-0.136-27.614-0.136-27.614
										l4.644,12.594l37.911-18.955c0,0-13.782-36.75-25.317-49.195c-14.577-15.727-40.8-14.163-40.8-14.163l-17.721,12.039
										l-16.311-11.487c0,0-12.961,1.179-25.203,7.33l-0.84,0.244l0.007,0.175c-9.62,5.029-23.342,17.275-36.417,29.163
										l15.09,14.691l16.715,15.568c0,0,2.823-0.318,2.856-0.122C217.244,340.573,213.849,387.557,213.849,387.557z"/>
								</g>
							</g>
						</g>
					</g>
				</g>
				<path style="opacity:0.2;" d="M299.533,306.685l12.463,44.453l-5.005,2.502l-4.644-12.594
					C302.346,341.046,297.833,314.693,299.533,306.685z"/>
			</g>
			<path style="fill:#455A64;" d="M243.738,271.667v-4.8c0,0,14.323-1.11,17.223,15.809c0,0,4.667-15.809,18.564-17.393l1.981,7.39
				c0,0-6.584,20.587-7.539,20.763c-0.956,0.176-13.006,3.695-13.006,3.695l-6.98-1.584l-7.755-8.826L243.738,271.667z"/>
			<g>
				<path style="fill:#263238;" d="M281.836,272.107c0.024,0.028-0.262,0.322-0.791,0.836c-0.522,0.522-1.285,1.268-2.183,2.232
					c-1.794,1.924-4.126,4.736-6.209,8.168c-0.439,0.715-0.844,1.431-1.225,2.12l-0.23,0.416l-0.222-0.415
					c-1.587-2.972-2.992-5.604-4.074-7.63c-0.273-0.452-0.583-0.815-0.916-1.043c-0.334-0.228-0.681-0.327-0.963-0.352
					c-0.578-0.043-0.854,0.199-0.874,0.155c-0.021-0.002,0.231-0.321,0.88-0.338c0.315-0.003,0.707,0.078,1.099,0.312
					c0.392,0.235,0.749,0.619,1.057,1.083c1.13,1.886,2.571,4.54,4.241,7.567l-0.451,0.001c0.381-0.7,0.788-1.425,1.232-2.148
					c2.107-3.471,4.513-6.28,6.389-8.152c0.939-0.938,1.746-1.648,2.312-2.126C281.482,272.324,281.813,272.081,281.836,272.107z"/>
			</g>
			<g>
				<path style="fill:#263238;" d="M242.812,272.96c0.029-0.022,0.27,0.236,0.683,0.721c0.413,0.485,0.997,1.198,1.71,2.085
					c1.426,1.775,3.367,4.248,5.485,7c0.116,0.151,0.232,0.301,0.339,0.441l-0.434,0.033c0.763-1.415,0.826-3.042,1.18-4.46
					c0.322-1.421,0.986-2.707,1.979-3.336c0.985-0.615,2.004-0.572,2.58-0.33c0.298,0.113,0.485,0.281,0.605,0.389
					c0.109,0.124,0.157,0.193,0.144,0.205c-0.033,0.039-0.255-0.239-0.814-0.407c-0.539-0.166-1.463-0.142-2.315,0.444
					c-0.846,0.588-1.433,1.766-1.718,3.143c-0.322,1.365-0.35,3.028-1.184,4.603l-0.188,0.354l-0.247-0.32
					c-0.107-0.139-0.223-0.289-0.339-0.44c-2.118-2.752-4.013-5.261-5.364-7.093c-0.676-0.916-1.215-1.663-1.579-2.186
					C242.971,273.282,242.783,272.982,242.812,272.96z"/>
			</g>
			<g>
				<path style="fill:#263238;" d="M252.993,387.557c-0.009,0-0.011-0.093-0.007-0.272c0.008-0.209,0.018-0.471,0.03-0.795
					c0.04-0.738,0.096-1.76,0.167-3.056c0.171-2.694,0.413-6.521,0.712-11.233c0.654-9.517,1.552-22.599,2.544-37.048
					c1.052-14.451,2.004-27.53,2.697-37.045c0.368-4.708,0.667-8.531,0.877-11.222c0.112-1.293,0.201-2.313,0.265-3.049
					c0.033-0.323,0.06-0.584,0.082-0.792c0.021-0.178,0.037-0.269,0.046-0.269c0.009,0.001,0.011,0.093,0.008,0.272
					c-0.008,0.209-0.018,0.471-0.03,0.796c-0.04,0.738-0.096,1.76-0.167,3.056c-0.171,2.693-0.413,6.52-0.711,11.233
					c-0.654,9.517-1.552,22.599-2.544,37.053c-1.051,14.446-2.003,27.523-2.696,37.038c-0.368,4.708-0.667,8.532-0.877,11.223
					c-0.112,1.293-0.201,2.313-0.265,3.05c-0.033,0.323-0.06,0.584-0.082,0.793C253.017,387.466,253.002,387.557,252.993,387.557z"
					/>
			</g>
			<g>
				<path style="fill:#263238;" d="M220.072,298.597c0.036,0.005,0.002,0.571-0.088,1.59c-0.089,1.112-0.204,2.565-0.344,4.318
					c-0.274,3.647-0.551,8.694-0.864,14.271c-0.313,5.578-0.648,10.629-1.017,14.275c-0.176,1.824-0.361,3.296-0.509,4.31
					c-0.153,1.014-0.254,1.571-0.289,1.567c-0.036-0.005-0.002-0.571,0.088-1.59c0.088-1.111,0.204-2.565,0.344-4.318
					c0.275-3.647,0.551-8.695,0.864-14.273c0.313-5.577,0.648-10.626,1.017-14.273c0.176-1.824,0.361-3.296,0.509-4.31
					C219.935,299.15,220.036,298.592,220.072,298.597z"/>
			</g>
			<g>
				<path style="fill:#E8505B;" d="M259.945,280.264c0,0-4.917,6.425-4.198,7.389c0.72,0.965,4.198,5.602,4.198,5.602h2.987
					c0,0,2.802-7.859,2.081-8.857C264.293,283.401,259.945,280.264,259.945,280.264z"/>
				<polygon style="fill:#E8505B;" points="267.496,278.527 262.068,282.775 264.149,286.759 269.734,282.643 				"/>
				<polygon style="fill:#E8505B;" points="251.55,281.207 256.5,285.341 259.244,281.207 252.993,276.458 				"/>
				<polygon style="fill:#E8505B;" points="259.945,293.255 252.391,360.906 259.823,384.434 269.734,361.12 263.211,292.449 				
					"/>
			</g>
			<g>
				<path style="fill:#263238;" d="M312.769,280.677c-0.037,0.037-0.298-0.331-0.979-0.671c-0.664-0.337-1.816-0.581-3.107-0.176
					c-1.297,0.393-2.62,1.412-3.872,2.732c-1.274,1.299-2.506,2.897-3.539,4.728c-2.072,3.678-2.86,7.508-2.999,10.255
					c-0.165,2.765,0.191,4.473,0.08,4.485c-0.036,0.006-0.126-0.416-0.261-1.188c-0.111-0.774-0.223-1.908-0.187-3.313
					c0.045-2.795,0.792-6.731,2.913-10.494c1.057-1.873,2.33-3.501,3.652-4.811c1.291-1.322,2.702-2.371,4.108-2.747
					c1.409-0.389,2.631-0.063,3.307,0.351c0.346,0.206,0.573,0.423,0.709,0.581C312.728,280.571,312.782,280.667,312.769,280.677z"
					/>
			</g>
		</g>
	</g>
</g>
<g id="Character_1">
	<g>
		<path style="fill:#263238;" d="M384.238,196.969c-6.404,3.929-10.853,10.503-13.497,17.535
			c-2.644,7.032-3.641,14.563-4.422,22.035c-2.064,19.73-2.757,39.603-2.072,59.428c24.237,3.067,48.657,6.14,73.031,4.481
			c-4.225-27.831-6.903-55.629-3.517-83.575"/>
		<g>
			<g>
				<g>
					<path style="fill:#E8505B;" d="M438.673,428.274l-17.642-35.686l6.735-26.097c0.791,5.53,1.495,10.33,1.495,10.33l37.852-2.003
						c1.408-0.074,2.449-1.34,2.251-2.735l-7.397-52.207c0,0-2.366-24.217-25.293-33.216l0-0.002
						c-0.034-0.012-0.067-0.023-0.101-0.035c-0.922-0.359-1.883-0.688-2.872-0.995c-30.913-10.716-59.861-10.652-92.075,0.34
						c0,0-14.311,3.85-21.246,22.518c-6.936,18.668-14.019,46.114-14.019,46.114L338.5,365.95l0.212-5.425l7.103,27.158
						l-15.578,39.559l54.349,1.343L438.673,428.274z"/>
				</g>
			</g>
			<path style="fill:#E8505B;" d="M306.431,354.276l-3.606,17.046c-3.1,14.652,7.747,29.692,22.629,31.376l79.104,8.12
				c17.56,1.987,33.306-10.888,34.848-28.492l0,0l-99.739-9.51l0.625-9.571L306.431,354.276z"/>
			<path style="fill:#FFBE9D;" d="M405.355,371.671l6.144-1.138c0,0,14.563-15.929,17.294-16.156
				c2.247-0.187,14.637-0.066,18.952-0.018c0.823,0.009,1.482,0.679,1.482,1.501l0,0c0,0.807-0.637,1.469-1.443,1.5l-14.637,0.568
				l-0.069,1.178l14.658,0.195c1.492,0.115,2.449,2.478-2.328,2.905l-12.26,0.436v0.763l12.431,1.738
				c0.628,0.088,2.281,0.409,2.296,1.043c0,0,0.752,1.558-2.79,2c-1.216,0.152-12.007-0.206-12.007-0.206l0.416,0.97l11.172,2.41
				c0.814,0.176,1.354,0.949,1.238,1.773l0,0c-0.118,0.84-0.875,1.439-1.719,1.361l-11.938-1.108l-11.714,9.357h-15.665
				L405.355,371.671z"/>
			<path style="fill:#FAFAFA;" d="M366.477,278.304c0,0,15.41,78.797,20.845,78.221c5.435-0.576,30.901-75.502,30.901-75.502
				S385.667,271.086,366.477,278.304z"/>
			<g>
				<path style="fill:#263238;" d="M434.674,354.579c-0.144,0-0.26-5.434-0.26-12.136c0-6.704,0.117-12.137,0.26-12.137
					c0.144,0,0.26,5.433,0.26,12.137C434.935,349.145,434.818,354.579,434.674,354.579z"/>
			</g>
			<g>
				<path style="fill:#263238;" d="M340.07,355.088c-0.071-0.009,0.057-1.343,0.323-3.493c0.266-2.15,0.668-5.117,1.145-8.389
					c0.477-3.273,0.937-6.232,1.296-8.37c0.359-2.137,0.617-3.454,0.688-3.443c0.071,0.011-0.058,1.346-0.323,3.497
					c-0.266,2.15-0.668,5.115-1.144,8.387c-0.476,3.27-0.936,6.227-1.295,8.365C340.399,353.779,340.141,355.097,340.07,355.088z"/>
			</g>
			<g>
				<path style="fill:#263238;" d="M384.586,428.584c-0.018,0-0.034-0.251-0.048-0.73c-0.009-0.53-0.02-1.225-0.035-2.093
					c-0.014-1.818-0.003-4.449,0.066-7.698c0.12-6.499,0.472-15.471,0.918-25.375c0.446-9.907,0.856-18.873,1.07-25.366
					c0.096-3.203,0.175-5.815,0.231-7.689c0.026-0.867,0.047-1.562,0.063-2.091c0.02-0.478,0.039-0.729,0.057-0.729
					c0.018,0,0.034,0.251,0.047,0.73c0.009,0.53,0.02,1.225,0.035,2.093c0.015,1.818,0.003,4.448-0.066,7.697
					c-0.12,6.499-0.472,15.472-0.918,25.379c-0.446,9.904-0.856,18.869-1.07,25.362c-0.096,3.203-0.175,5.815-0.231,7.69
					c-0.026,0.867-0.047,1.562-0.063,2.091C384.624,428.333,384.604,428.584,384.586,428.584z"/>
			</g>
			<g>
				<path style="fill:#263238;" d="M418.092,280.867c0.026-0.002,0.052,0.34,0.17,0.979c0.113,0.639,0.337,1.574,0.788,2.721
					c0.441,1.151,1.124,2.5,1.996,4.024c0.857,1.53,1.945,3.228,2.835,5.28c0.866,2.027,1.652,4.491,1.2,7.158
					c-0.208,1.325-0.803,2.614-1.607,3.769c-0.803,1.163-1.796,2.216-2.823,3.262c-2.049,2.086-4.223,4.267-5.997,6.884
					c-1.774,2.586-3.081,5.721-3.095,9.053c-0.009,1.662,0.38,3.264,1.059,4.743c0.65,1.493,1.464,2.918,1.941,4.486
					c0.235,0.781,0.377,1.605,0.315,2.428c-0.06,0.82-0.328,1.62-0.757,2.299c-0.871,1.365-2.164,2.252-3.326,3.122
					c-4.709,3.47-8.952,6.596-12.529,9.232c-3.551,2.593-6.437,4.701-8.473,6.188c-0.98,0.702-1.755,1.257-2.319,1.661
					c-0.247,0.171-0.448,0.309-0.611,0.422c-0.139,0.093-0.213,0.136-0.219,0.129c-0.005-0.007,0.058-0.065,0.187-0.172
					c0.155-0.123,0.345-0.276,0.58-0.463c0.55-0.423,1.305-1.004,2.261-1.74c2.013-1.519,4.865-3.671,8.375-6.32
					c3.558-2.661,7.779-5.818,12.462-9.321c1.163-0.875,2.404-1.751,3.19-3c0.387-0.619,0.622-1.331,0.676-2.072
					c0.054-0.742-0.075-1.502-0.3-2.243c-0.455-1.49-1.261-2.905-1.927-4.426c-0.698-1.51-1.119-3.225-1.105-4.951
					c0.014-3.472,1.378-6.704,3.193-9.339c1.817-2.666,4.021-4.858,6.078-6.934c2.047-2.038,3.94-4.215,4.346-6.77
					c0.451-2.526-0.279-4.933-1.113-6.937c-0.853-2.027-1.914-3.732-2.751-5.283c-0.85-1.544-1.515-2.92-1.931-4.095
					c-0.426-1.172-0.622-2.126-0.702-2.776c-0.052-0.324-0.056-0.574-0.067-0.742C418.083,280.954,418.083,280.868,418.092,280.867z
					"/>
			</g>
			<g>
				<path style="fill:#263238;" d="M387.261,355.722c-0.002,0.009-0.084,0-0.244-0.027c-0.19-0.035-0.422-0.079-0.707-0.132
					c-0.619-0.126-1.525-0.354-2.667-0.731c-2.262-0.775-5.511-2.225-8.794-5.045c-1.639-1.399-3.253-3.157-4.672-5.263
					c-1.407-2.112-2.607-4.582-3.395-7.329c-0.808-2.739-1.193-5.756-1.044-8.863c0.064-1.55,0.316-3.136,0.629-4.686
					c0.276-1.544,0.544-3.168,0.131-4.676c-0.204-0.747-0.639-1.4-1.213-1.888c-0.587-0.479-1.309-0.783-2.053-1.029
					c-0.743-0.251-1.515-0.455-2.26-0.765c-0.749-0.302-1.443-0.761-2.026-1.313c-1.145-1.148-1.768-2.658-2.058-4.133
					c-0.306-1.485-0.325-2.968-0.244-4.395c0.524-5.683,1.839-10.662,3.28-14.706c1.452-4.046,3.03-7.156,4.201-9.247
					c0.594-1.042,1.072-1.841,1.42-2.368c0.159-0.242,0.289-0.439,0.394-0.6c0.091-0.134,0.142-0.2,0.149-0.195
					c0.008,0.005-0.028,0.08-0.104,0.223c-0.094,0.168-0.209,0.374-0.35,0.626c-0.318,0.544-0.767,1.358-1.332,2.411
					c-1.113,2.114-2.633,5.234-4.032,9.272c-1.388,4.029-2.658,9.006-3.148,14.613c-0.073,1.396-0.047,2.842,0.252,4.264
					c0.282,1.417,0.88,2.823,1.928,3.869c0.538,0.504,1.16,0.918,1.865,1.202c0.704,0.291,1.464,0.492,2.229,0.749
					c0.762,0.252,1.549,0.574,2.219,1.119c0.656,0.553,1.156,1.313,1.382,2.146c0.453,1.681,0.153,3.354-0.122,4.914
					c-0.318,1.568-0.56,3.088-0.629,4.618c-0.153,3.047,0.214,6.01,0.996,8.705c1.52,5.434,4.654,9.667,7.848,12.447
					c3.207,2.818,6.395,4.304,8.619,5.132c1.123,0.404,2.015,0.662,2.624,0.82c0.28,0.073,0.507,0.133,0.693,0.182
					C387.184,355.687,387.263,355.713,387.261,355.722z"/>
			</g>
			<path style="fill:#E8505B;" d="M428.878,371.781l-66.263-2.141l0.101,21.987l43.873,9.648l30.87,4.928
				c19.186,0,34.532-17.609,31.561-36.563l-0.082,0.022L428.878,371.781z"/>
			<g>
				<path style="fill:#263238;" d="M447.12,371.36c0,0.018-0.296,0.038-0.859,0.06c-0.609,0.017-1.43,0.041-2.463,0.07
					c-2.19,0.04-5.272,0.095-9.06,0.164c-7.65,0.111-18.221,0.241-29.898,0.13c-11.681-0.115-22.251-0.537-29.888-1.054
					c-3.818-0.255-6.906-0.502-9.035-0.716c-1.028-0.105-1.845-0.189-2.451-0.251c-0.56-0.063-0.853-0.105-0.851-0.123
					c0.002-0.018,0.298-0.011,0.861,0.018c0.608,0.038,1.428,0.089,2.459,0.154c2.133,0.152,5.223,0.343,9.041,0.551
					c7.637,0.423,18.198,0.786,29.872,0.901c11.67,0.111,22.238,0.04,29.889,0.022c3.788,0.001,6.871,0.001,9.061,0.001
					c1.033,0.012,1.855,0.021,2.464,0.027C446.823,371.327,447.119,371.342,447.12,371.36z"/>
			</g>
			<path style="fill:#FFBE9D;" d="M362.052,371.671l-6.144-1.138c0,0-14.563-15.929-17.294-16.156
				c-2.247-0.187-14.637-0.066-18.952-0.018c-0.823,0.009-1.482,0.679-1.482,1.501l0,0c0,0.807,0.637,1.469,1.443,1.5l14.637,0.568
				l0.069,1.178l-14.658,0.195c-1.492,0.115-2.449,2.478,2.328,2.905l12.26,0.436v0.763l-12.431,1.738
				c-0.628,0.088-2.281,0.409-2.296,1.043c0,0-0.752,1.558,2.79,2c1.216,0.152,12.007-0.206,12.007-0.206l-0.416,0.97l-11.172,2.41
				c-0.813,0.176-1.353,0.949-1.238,1.773l0,0c0.118,0.84,0.875,1.439,1.719,1.361l11.938-1.108l11.714,9.357h15.665
				L362.052,371.671z"/>
			<g>
				<path style="fill:#263238;" d="M436.283,405.854c-0.002,0.018-0.261,0.002-0.752-0.045c-0.54-0.058-1.253-0.134-2.145-0.23
					c-1.862-0.207-4.55-0.549-7.867-1.008c-6.635-0.917-15.777-2.37-25.808-4.334c-10.033-1.97-19.048-4.078-25.538-5.734
					c-3.245-0.827-5.864-1.526-7.665-2.037c-0.861-0.248-1.55-0.446-2.072-0.597c-0.472-0.142-0.718-0.225-0.713-0.242
					c0.005-0.017,0.259,0.032,0.74,0.141c0.528,0.127,1.225,0.294,2.097,0.502c1.874,0.456,4.491,1.094,7.702,1.876
					c6.508,1.564,15.526,3.612,25.55,5.581c10.021,1.962,19.144,3.471,25.761,4.48c3.268,0.488,5.933,0.887,7.841,1.172
					c0.886,0.136,1.594,0.244,2.131,0.327C436.03,405.786,436.285,405.837,436.283,405.854z"/>
			</g>
			<g>
				<path style="fill:#263238;" d="M363.308,391.728c-0.068,0.009-0.307-1.184-0.574-3.133c-0.267-1.948-0.547-4.652-0.702-7.65
					c-0.154-2.999-0.154-5.718-0.088-7.683c0.065-1.965,0.18-3.177,0.248-3.175c0.076,0.003,0.091,1.217,0.12,3.178
					c0.029,1.96,0.087,4.667,0.24,7.653c0.155,2.985,0.375,5.683,0.548,7.636C363.273,390.508,363.383,391.718,363.308,391.728z"/>
			</g>
			<g>
				<path style="fill:#263238;" d="M370.554,392.588c-0.035,0.008-0.137-0.289-0.29-0.835c-0.157-0.545-0.349-1.343-0.555-2.336
					c-0.415-1.985-0.841-4.763-1.032-7.855c-0.186-3.094-0.1-5.903,0.072-7.924c0.085-1.011,0.178-1.826,0.268-2.386
					c0.087-0.561,0.151-0.868,0.187-0.864c0.079,0.009-0.012,1.256-0.087,3.272c-0.076,2.015-0.104,4.801,0.081,7.87
					c0.189,3.068,0.554,5.83,0.874,7.821C370.389,391.342,370.631,392.57,370.554,392.588z"/>
			</g>
			<g>
				<path style="fill:#263238;" d="M364.433,373.609c0.056,0.061-0.327,0.335-0.313,0.965c0.008,0.298,0.122,0.671,0.404,0.892
					c0.27,0.229,0.721,0.237,1.103,0.018c0.381-0.221,0.6-0.615,0.537-0.964c-0.05-0.355-0.316-0.641-0.569-0.797
					c-0.538-0.328-0.967-0.134-0.992-0.213c-0.06-0.033,0.403-0.431,1.16-0.115c0.345,0.154,0.752,0.484,0.874,1.04
					c0.135,0.565-0.215,1.204-0.75,1.499c-0.523,0.314-1.252,0.296-1.673-0.103c-0.421-0.385-0.502-0.902-0.462-1.278
					C363.858,373.742,364.435,373.541,364.433,373.609z"/>
			</g>
			<g>
				<path style="fill:#263238;" d="M376.481,395.841c-0.001,0.018-0.236,0.025-0.681,0.022c-0.445-0.011-1.101-0.007-1.946,0.007
					c-1.688,0.031-4.13,0.198-7.111,0.667c-2.982,0.47-6.491,1.269-10.353,2.299c-3.865,1.02-8.093,2.258-12.618,3.244
					c-4.525,0.976-8.943,1.544-12.974,1.406c-4.029-0.124-7.62-0.912-10.464-2.001c-2.846-1.101-4.943-2.453-6.259-3.525
					c-0.656-0.543-1.149-0.98-1.454-1.308c-0.315-0.317-0.474-0.489-0.461-0.501c0.043-0.045,0.691,0.637,2.039,1.649
					c1.342,1.013,3.441,2.299,6.264,3.341c2.822,1.03,6.371,1.769,10.349,1.866c3.979,0.11,8.352-0.465,12.851-1.436
					c4.501-0.98,8.727-2.203,12.607-3.199c3.876-1.007,7.413-1.772,10.419-2.199c3.007-0.425,5.469-0.537,7.165-0.506
					c0.849,0.018,1.506,0.046,1.951,0.091C376.249,395.796,376.482,395.824,376.481,395.841z"/>
			</g>
		</g>
		<g>
			<g>
				<g>
					<g>
						<g>
							<path style="fill:#FFBE9D;" d="M405.628,287.584c1.576-8.787,3.395-18.009,3.395-18.009s11.657,0.114,16.607-14.25
								c4.72-13.699,8.13-46.652,8.13-46.652l0,0c-15.13-9.519-35.221-8.495-49.144,2.505l0,0l-11.62,71.579
								c-1.349,8.31,4.721,16.088,13.63,17.464h0C395.624,301.612,404.127,295.956,405.628,287.584z"/>
						</g>
						<g>
							<g>
								<path style="fill:#263238;" d="M425.091,233.355c-0.141,1.007-1.11,1.718-2.164,1.59c-1.052-0.128-1.794-1.046-1.653-2.053
									c0.141-1.007,1.11-1.719,2.162-1.592C424.491,231.428,425.232,232.348,425.091,233.355z"/>
							</g>
							<g>
								<g>
									<path style="fill:#263238;" d="M428.537,231.774c-0.278,0.206-1.527-1.109-3.568-1.463
										c-2.033-0.383-3.714,0.403-3.892,0.114c-0.089-0.13,0.229-0.533,0.964-0.893c0.724-0.36,1.9-0.626,3.169-0.397
										c1.269,0.231,2.255,0.887,2.785,1.473C428.539,231.199,428.672,231.684,428.537,231.774z"/>
								</g>
							</g>
						</g>
						<g>
							<g>
								<path style="fill:#263238;" d="M404.15,230.038c-0.141,1.007-1.11,1.718-2.164,1.59c-1.052-0.128-1.793-1.046-1.652-2.053
									c0.141-1.007,1.11-1.719,2.162-1.592C403.551,228.111,404.291,229.031,404.15,230.038z"/>
							</g>
							<g>
								<g>
									<path style="fill:#263238;" d="M407.128,228.767c-0.279,0.206-1.529-1.11-3.568-1.463
										c-2.033-0.383-3.714,0.403-3.892,0.114c-0.089-0.13,0.227-0.534,0.965-0.893c0.724-0.36,1.9-0.626,3.169-0.397
										c1.269,0.231,2.255,0.887,2.785,1.473C407.128,228.192,407.262,228.677,407.128,228.767z"/>
								</g>
							</g>
						</g>
						<g>
							<g>
								<path style="fill:#263238;" d="M411.865,245.194c0.011-0.118,1.317-0.113,3.418-0.014c0.53,0.038,1.041,0.021,1.192-0.319
									c0.189-0.355,0.07-0.955-0.076-1.605c-0.268-1.347-0.547-2.758-0.842-4.237c-1.144-6.022-1.874-10.937-1.632-10.981
									c0.243-0.044,1.368,4.802,2.512,10.824c0.269,1.483,0.528,2.896,0.773,4.249c0.093,0.626,0.314,1.357-0.09,2.091
									c-0.209,0.365-0.641,0.579-0.99,0.611c-0.352,0.043-0.646-0.003-0.906-0.033
									C413.137,245.528,411.853,245.311,411.865,245.194z"/>
							</g>
						</g>
						<g>
							<path style="fill:#EB996E;" d="M409.023,269.575c0,0-10.054-1.11-18.86-8.765c0,0,3.013,10.997,18.046,12.219
								L409.023,269.575z"/>
						</g>
						<g>
							<path style="fill:#EB996E;" d="M410.137,249.957c-0.563-1.099-1.754-1.858-3.054-1.945c-0.902-0.061-1.871,0.208-2.536,0.834
								c-0.665,0.626-0.957,1.629-0.59,2.402c0.414,0.871,1.533,1.252,2.555,1.147c1.022-0.105,1.973-0.598,2.88-1.097
								c0.251-0.138,0.509-0.283,0.689-0.5c0.18-0.218,0.265-0.529,0.131-0.76"/>
						</g>
						<g>
							<g>
								<path style="fill:#263238;" d="M405.615,245.548c0.335,0.039-0.051,2.254,1.567,4.158c1.614,1.91,4.017,2.076,3.98,2.389
									c0.007,0.144-0.601,0.337-1.602,0.189c-0.983-0.139-2.354-0.704-3.344-1.869c-0.986-1.167-1.257-2.54-1.172-3.462
									C405.122,246.013,405.466,245.508,405.615,245.548z"/>
							</g>
						</g>
					</g>
					<g>
						<path style="fill:#263238;" d="M394.612,200.618c3.948,8.709,16.744,19.308,26.627,23.068
							c-0.898-1.797-6.453-6.852-7.351-8.649c3.986,4.335,9.749,10.214,15.842,11.684c0.721,0.174,1.509,0.32,2.176,0.068
							c0.909-0.343,1.257-1.278,1.511-2.114c1.076-3.53,1.988-9.757,2.087-13.442c0.099-3.685-0.875-7.553-3.528-10.535
							c-3.368-3.785-8.867-5.598-14.157-6.725c-4.437-0.945-9.081-1.546-13.457-0.704c-4.376,0.842-8.459,3.365-9.774,7.075"/>
					</g>
					<g>
						<path style="fill:#263238;" d="M371.048,233.422c-0.025-3.956,0.064-7.689,0.381-10.134
							c0.997-7.691,3.395-35.655,29.206-28.46l-2.747,7.162c0,0,1.982,17.998-11.266,27.662c0,0,0.057,17.963-9.119,24.445
							C377.502,254.098,371.102,241.916,371.048,233.422"/>
					</g>
					<g>
						<path style="fill:#FFBE9D;" d="M387.173,228.434c-1.526-0.584-3.204-0.835-4.81-0.533c-1.606,0.301-3.129,1.188-4.038,2.546
							c-0.912,1.361-1.152,3.102-0.873,4.716c0.279,1.614,1.043,3.113,1.992,4.448c0.682,0.959,1.489,1.867,2.534,2.409
							c1.044,0.542,2.365,0.662,3.381,0.07"/>
					</g>
					<g>
						<g>
							<path style="fill:#EB996E;" d="M384.612,237.86c0.171,0.091-0.685,0.925-2.061,0.282c-0.663-0.306-1.234-1.037-1.511-1.873
								c-0.277-0.849-0.395-1.747-0.325-2.761c0.074-1.004,0.483-2.013,1.158-2.664c0.652-0.67,1.579-0.97,2.292-0.86
								c1.492,0.229,1.771,1.339,1.597,1.34c-0.14,0.099-0.623-0.533-1.637-0.47c-0.962,0.007-2.104,1.13-2.184,2.762
								c-0.11,1.657,0.253,3.255,1.053,3.779C383.814,238.01,384.536,237.712,384.612,237.86z"/>
						</g>
					</g>
				</g>
			</g>
			<path style="fill:#263238;" d="M384.586,242.056c-4.009,23.913-0.742,48.354-0.027,72.59c0.068,2.323,0.09,4.757-0.966,6.827
				c-1.597,3.131-5.31,4.652-8.819,4.868c-3.508,0.216-6.989-0.604-10.493-0.89c-0.378-2.325-0.755-4.65-1.133-6.975
				c-1.167,2.679-2.334,5.357-3.501,8.036c1.543-17.007,3.23-34,5.063-50.978"/>
		</g>
	</g>
</g>
</svg>
